<svg width="300" height="64" viewBox="0 0 300 64" fill="none" xmlns="http://www.w3.org/2000/svg">
<g filter="url(#filter0_i_2_2)">
<g clip-path="url(#clip0_2_2)">
<path d="M18.14 27.84C19.02 26.88 19.92 25.88 20.84 24.84C21.8 23.8 22.72 22.78 23.6 21.78C24.48 20.74 25.3 19.76 26.06 18.84C26.86 17.92 27.54 17.12 28.1 16.44H38.72C36.6 18.88 34.52 21.22 32.48 23.46C30.48 25.66 28.28 27.94 25.88 30.3C27.08 31.38 28.32 32.68 29.6 34.2C30.88 35.68 32.12 37.22 33.32 38.82C34.52 40.42 35.62 42.02 36.62 43.62C37.62 45.22 38.46 46.68 39.14 48H28.88C28.24 46.96 27.5 45.82 26.66 44.58C25.86 43.3 25 42.04 24.08 40.8C23.16 39.52 22.18 38.3 21.14 37.14C20.14 35.98 19.14 35 18.14 34.2V48H9.2V2.88L18.14 1.44V27.84ZM55.4202 41.76C56.3002 41.76 57.1402 41.74 57.9402 41.7C58.7402 41.66 59.3802 41.6 59.8602 41.52V34.74C59.5002 34.66 58.9602 34.58 58.2402 34.5C57.5202 34.42 56.8602 34.38 56.2602 34.38C55.4202 34.38 54.6202 34.44 53.8602 34.56C53.1402 34.64 52.5002 34.82 51.9402 35.1C51.3802 35.38 50.9402 35.76 50.6202 36.24C50.3002 36.72 50.1402 37.32 50.1402 38.04C50.1402 39.44 50.6002 40.42 51.5202 40.98C52.4802 41.5 53.7802 41.76 55.4202 41.76ZM54.7002 15.6C57.3402 15.6 59.5402 15.9 61.3002 16.5C63.0602 17.1 64.4602 17.96 65.5002 19.08C66.5802 20.2 67.3402 21.56 67.7802 23.16C68.2202 24.76 68.4402 26.54 68.4402 28.5V47.1C67.1602 47.38 65.3802 47.7 63.1002 48.06C60.8202 48.46 58.0602 48.66 54.8202 48.66C52.7802 48.66 50.9202 48.48 49.2402 48.12C47.6002 47.76 46.1802 47.18 44.9802 46.38C43.7802 45.54 42.8602 44.46 42.2202 43.14C41.5802 41.82 41.2602 40.2 41.2602 38.28C41.2602 36.44 41.6202 34.88 42.3402 33.6C43.1002 32.32 44.1002 31.3 45.3402 30.54C46.5802 29.78 48.0002 29.24 49.6002 28.92C51.2002 28.56 52.8602 28.38 54.5802 28.38C55.7402 28.38 56.7602 28.44 57.6402 28.56C58.5602 28.64 59.3002 28.76 59.8602 28.92V28.08C59.8602 26.56 59.4002 25.34 58.4802 24.42C57.5602 23.5 55.9602 23.04 53.6802 23.04C52.1602 23.04 50.6602 23.16 49.1802 23.4C47.7002 23.6 46.4202 23.9 45.3402 24.3L44.2002 17.1C44.7202 16.94 45.3602 16.78 46.1202 16.62C46.9202 16.42 47.7802 16.26 48.7002 16.14C49.6202 15.98 50.5802 15.86 51.5802 15.78C52.6202 15.66 53.6602 15.6 54.7002 15.6ZM76.5242 48V2.88L85.4642 1.44V16.56C86.0642 16.36 86.8242 16.18 87.7442 16.02C88.7042 15.82 89.6242 15.72 90.5042 15.72C93.0642 15.72 95.1842 16.08 96.8642 16.8C98.5842 17.48 99.9442 18.46 100.944 19.74C101.984 21.02 102.704 22.54 103.104 24.3C103.544 26.06 103.764 28.02 103.764 30.18V48H94.8242V31.26C94.8242 28.38 94.4442 26.34 93.6842 25.14C92.9642 23.94 91.6042 23.34 89.6042 23.34C88.8042 23.34 88.0442 23.42 87.3242 23.58C86.6442 23.7 86.0242 23.84 85.4642 24V48H76.5242ZM138.796 46.92C137.276 47.36 135.316 47.76 132.916 48.12C130.516 48.52 127.996 48.72 125.356 48.72C122.676 48.72 120.436 48.36 118.636 47.64C116.876 46.92 115.476 45.92 114.436 44.64C113.396 43.32 112.656 41.76 112.216 39.96C111.776 38.16 111.556 36.18 111.556 34.02V16.44H120.496V32.94C120.496 35.82 120.876 37.9 121.636 39.18C122.396 40.46 123.816 41.1 125.896 41.1C126.536 41.1 127.216 41.08 127.936 41.04C128.656 40.96 129.296 40.88 129.856 40.8V16.44H138.796V46.92ZM146.888 8.58L155.828 7.14V16.44H166.568V23.88H155.828V34.98C155.828 36.86 156.148 38.36 156.788 39.48C157.468 40.6 158.808 41.16 160.808 41.16C161.768 41.16 162.748 41.08 163.748 40.92C164.788 40.72 165.728 40.46 166.568 40.14L167.828 47.1C166.748 47.54 165.548 47.92 164.228 48.24C162.908 48.56 161.288 48.72 159.368 48.72C156.928 48.72 154.908 48.4 153.308 47.76C151.708 47.08 150.428 46.16 149.468 45C148.508 43.8 147.828 42.36 147.428 40.68C147.068 39 146.888 37.14 146.888 35.1V8.58ZM170.563 26.04H187.963V34.14H170.563V26.04ZM201.976 31.98C201.976 34.74 202.596 36.96 203.836 38.64C205.076 40.32 206.916 41.16 209.356 41.16C210.156 41.16 210.896 41.14 211.576 41.1C212.256 41.02 212.816 40.94 213.256 40.86V24.6C212.696 24.24 211.956 23.94 211.036 23.7C210.156 23.46 209.256 23.34 208.336 23.34C204.096 23.34 201.976 26.22 201.976 31.98ZM222.196 46.98C221.396 47.22 220.476 47.46 219.436 47.7C218.396 47.9 217.296 48.08 216.136 48.24C215.016 48.4 213.856 48.52 212.656 48.6C211.496 48.72 210.376 48.78 209.296 48.78C206.696 48.78 204.376 48.4 202.336 47.64C200.296 46.88 198.576 45.8 197.176 44.4C195.776 42.96 194.696 41.24 193.936 39.24C193.216 37.2 192.856 34.92 192.856 32.4C192.856 29.84 193.176 27.54 193.816 25.5C194.456 23.42 195.376 21.66 196.576 20.22C197.776 18.78 199.236 17.68 200.956 16.92C202.716 16.16 204.716 15.78 206.956 15.78C208.196 15.78 209.296 15.9 210.256 16.14C211.256 16.38 212.256 16.72 213.256 17.16V2.88L222.196 1.44V46.98ZM229.067 32.46C229.067 29.66 229.487 27.22 230.327 25.14C231.207 23.02 232.347 21.26 233.747 19.86C235.147 18.46 236.747 17.4 238.547 16.68C240.387 15.96 242.267 15.6 244.187 15.6C248.667 15.6 252.207 16.98 254.807 19.74C257.407 22.46 258.707 26.48 258.707 31.8C258.707 32.32 258.687 32.9 258.647 33.54C258.607 34.14 258.567 34.68 258.527 35.16H238.247C238.447 37 239.307 38.46 240.827 39.54C242.347 40.62 244.387 41.16 246.947 41.16C248.587 41.16 250.187 41.02 251.747 40.74C253.347 40.42 254.647 40.04 255.647 39.6L256.847 46.86C256.367 47.1 255.727 47.34 254.927 47.58C254.127 47.82 253.227 48.02 252.227 48.18C251.267 48.38 250.227 48.54 249.107 48.66C247.987 48.78 246.867 48.84 245.747 48.84C242.907 48.84 240.427 48.42 238.307 47.58C236.227 46.74 234.487 45.6 233.087 44.16C231.727 42.68 230.707 40.94 230.027 38.94C229.387 36.94 229.067 34.78 229.067 32.46ZM250.067 29.04C250.027 28.28 249.887 27.54 249.647 26.82C249.447 26.1 249.107 25.46 248.627 24.9C248.187 24.34 247.607 23.88 246.887 23.52C246.207 23.16 245.347 22.98 244.307 22.98C243.307 22.98 242.447 23.16 241.727 23.52C241.007 23.84 240.407 24.28 239.927 24.84C239.447 25.4 239.067 26.06 238.787 26.82C238.547 27.54 238.367 28.28 238.247 29.04H250.067ZM274.186 48C272.146 44 270.066 39.32 267.946 33.96C265.866 28.6 263.886 22.76 262.006 16.44H271.486C271.886 18 272.346 19.7 272.866 21.54C273.426 23.34 273.986 25.18 274.546 27.06C275.146 28.9 275.726 30.7 276.286 32.46C276.886 34.22 277.466 35.82 278.026 37.26C278.546 35.82 279.106 34.22 279.706 32.46C280.306 30.7 280.886 28.9 281.446 27.06C282.046 25.18 282.606 23.34 283.126 21.54C283.686 19.7 284.166 18 284.566 16.44H293.806C291.926 22.76 289.926 28.6 287.806 33.96C285.726 39.32 283.666 44 281.626 48H274.186Z" fill="white"/>
<path d="M18.14 27.84H16.14V32.9816L19.6143 29.1914L18.14 27.84ZM20.84 24.84L19.3704 23.4834L19.356 23.499L19.342 23.5149L20.84 24.84ZM23.6 21.78L25.1014 23.1013L25.1142 23.0867L25.1268 23.0719L23.6 21.78ZM26.06 18.84L24.5508 17.5276L24.5342 17.5467L24.5181 17.5662L26.06 18.84ZM28.1 16.44V14.44H27.1562L26.5561 15.1686L28.1 16.44ZM38.72 16.44L40.2297 17.7517L43.1072 14.44H38.72V16.44ZM32.48 23.46L31.0013 22.1133L31.0001 22.1147L32.48 23.46ZM25.88 30.3L24.4777 28.874L22.9619 30.3645L24.5421 31.7866L25.88 30.3ZM29.6 34.2L28.0702 35.4883L28.0787 35.4983L28.0873 35.5083L29.6 34.2ZM33.32 38.82L34.92 37.62L34.92 37.62L33.32 38.82ZM36.62 43.62L34.924 44.68L34.924 44.68L36.62 43.62ZM39.14 48V50H42.4201L40.918 47.0841L39.14 48ZM28.88 48L27.1767 49.0482L27.7624 50H28.88V48ZM26.66 44.58L24.964 45.64L24.9835 45.6712L25.0042 45.7017L26.66 44.58ZM24.08 40.8L22.456 41.9673L22.4648 41.9796L22.4738 41.9917L24.08 40.8ZM21.14 37.14L19.6252 38.4459L19.6379 38.4606L19.6509 38.4751L21.14 37.14ZM18.14 34.2L19.3894 32.6383L16.14 30.0388V34.2H18.14ZM18.14 48V50H20.14V48H18.14ZM9.2 48H7.2V50H9.2V48ZM9.2 2.88L8.88195 0.905449L7.2 1.17637V2.88H9.2ZM18.14 1.44H20.14V-0.907927L17.822 -0.534551L18.14 1.44ZM19.6143 29.1914C20.5028 28.2222 21.4107 27.2134 22.338 26.1651L19.342 23.5149C18.4293 24.5466 17.5372 25.5378 16.6657 26.4885L19.6143 29.1914ZM22.3096 26.1966C23.2797 25.1456 24.2103 24.1139 25.1014 23.1013L22.0986 20.4587C21.2297 21.4461 20.3203 22.4544 19.3704 23.4834L22.3096 26.1966ZM25.1268 23.0719C26.0112 22.0267 26.8363 21.0406 27.6019 20.1138L24.5181 17.5662C23.7637 18.4794 22.9488 19.4533 22.0732 20.4881L25.1268 23.0719ZM27.5692 20.1524C28.3769 19.2236 29.0691 18.4093 29.6439 17.7114L26.5561 15.1686C26.0109 15.8307 25.3431 16.6164 24.5508 17.5276L27.5692 20.1524ZM28.1 18.44H38.72V14.44H28.1V18.44ZM37.2103 15.1283C35.0998 17.5573 33.0302 19.8856 31.0013 22.1133L33.9587 24.8067C36.0098 22.5544 38.1002 20.2027 40.2297 17.7517L37.2103 15.1283ZM31.0001 22.1147C29.0282 24.2837 26.8545 26.5368 24.4777 28.874L27.2823 31.726C29.7055 29.3432 31.9318 27.0363 33.9599 24.8053L31.0001 22.1147ZM24.5421 31.7866C25.6601 32.7928 26.8365 34.0233 28.0702 35.4883L31.1298 32.9117C29.8035 31.3367 28.4999 29.9672 27.2179 28.8134L24.5421 31.7866ZM28.0873 35.5083C29.3363 36.9525 30.5472 38.4563 31.72 40.02L34.92 37.62C33.6928 35.9837 32.4237 34.4075 31.1127 32.8917L28.0873 35.5083ZM31.72 40.02C32.888 41.5774 33.9557 43.1308 34.924 44.68L38.316 42.56C37.2843 40.9092 36.152 39.2626 34.92 37.62L31.72 40.02ZM34.924 44.68C35.9021 46.245 36.7131 47.6561 37.3621 48.9159L40.918 47.0841C40.207 45.7039 39.3379 44.195 38.316 42.56L34.924 44.68ZM39.14 46H28.88V50H39.14V46ZM30.5833 46.9518C29.9251 45.8822 29.1687 44.7173 28.3158 43.4583L25.0042 45.7017C25.8313 46.9227 26.5549 48.0378 27.1767 49.0482L30.5833 46.9518ZM28.356 43.52C27.5272 42.1939 26.6371 40.89 25.6862 39.6083L22.4738 41.9917C23.3629 43.19 24.1928 44.4061 24.964 45.64L28.356 43.52ZM25.704 39.6327C24.7426 38.2951 23.7176 37.019 22.6291 35.8049L19.6509 38.4751C20.6424 39.581 21.5774 40.7449 22.456 41.9673L25.704 39.6327ZM22.6548 35.8341C21.5895 34.5983 20.5021 33.5284 19.3894 32.6383L16.8906 35.7617C17.7779 36.4716 18.6905 37.3617 19.6252 38.4459L22.6548 35.8341ZM16.14 34.2V48H20.14V34.2H16.14ZM18.14 46H9.2V50H18.14V46ZM11.2 48V2.88H7.2V48H11.2ZM9.51805 4.85455L18.458 3.41455L17.822 -0.534551L8.88195 0.905449L9.51805 4.85455ZM16.14 1.44V27.84H20.14V1.44H16.14ZM57.9402 41.7L58.04 43.6975L58.04 43.6975L57.9402 41.7ZM59.8602 41.52L60.189 43.4928L61.8602 43.2143V41.52H59.8602ZM59.8602 34.74H61.8602V33.1357L60.294 32.7876L59.8602 34.74ZM53.8602 34.56L54.081 36.5478L54.1267 36.5427L54.1721 36.5355L53.8602 34.56ZM51.9402 35.1L52.8346 36.8889L52.8346 36.8889L51.9402 35.1ZM51.5202 40.98L50.4803 42.6884L50.5233 42.7146L50.5676 42.7386L51.5202 40.98ZM65.5002 19.08L64.0346 20.4409L64.0474 20.4547L64.0605 20.4683L65.5002 19.08ZM67.7802 23.16L69.7086 22.6297L69.7086 22.6297L67.7802 23.16ZM68.4402 47.1L68.8676 49.0538L70.4402 48.7098V47.1H68.4402ZM63.1002 48.06L62.7882 46.0845L62.7714 46.0871L62.7546 46.0901L63.1002 48.06ZM49.2402 48.12L48.8113 50.0735L48.8211 50.0756L49.2402 48.12ZM44.9802 46.38L43.8332 48.0185L43.8518 48.0315L43.8708 48.0441L44.9802 46.38ZM42.2202 43.14L44.0198 42.2675L42.2202 43.14ZM42.3402 33.6L40.6204 32.5789L40.6085 32.5991L40.597 32.6195L42.3402 33.6ZM45.3402 30.54L46.3853 32.2452L46.3853 32.2452L45.3402 30.54ZM49.6002 28.92L49.9924 30.8812L50.0158 30.8765L50.0392 30.8712L49.6002 28.92ZM57.6402 28.56L57.3699 30.5417L57.4183 30.5483L57.4669 30.5525L57.6402 28.56ZM59.8602 28.92L59.3107 30.843L61.8602 31.5715V28.92H59.8602ZM49.1802 23.4L49.448 25.382L49.4742 25.3784L49.5003 25.3742L49.1802 23.4ZM45.3402 24.3L43.3648 24.6128L43.7464 27.0231L46.0348 26.1755L45.3402 24.3ZM44.2002 17.1L43.612 15.1884L41.9534 15.6988L42.2248 17.4128L44.2002 17.1ZM46.1202 16.62L46.5322 18.5771L46.5689 18.5694L46.6052 18.5603L46.1202 16.62ZM48.7002 16.14L48.9588 18.1232L49.001 18.1177L49.0428 18.1104L48.7002 16.14ZM51.5802 15.78L51.7396 17.7736L51.7746 17.7708L51.8094 17.7668L51.5802 15.78ZM55.4202 43.76C56.3303 43.76 57.2037 43.7393 58.04 43.6975L57.8403 39.7025C57.0766 39.7407 56.2701 39.76 55.4202 39.76V43.76ZM58.04 43.6975C58.8746 43.6558 59.6006 43.5908 60.189 43.4928L59.5314 39.5472C59.1597 39.6092 58.6057 39.6642 57.8403 39.7025L58.04 43.6975ZM61.8602 41.52V34.74H57.8602V41.52H61.8602ZM60.294 32.7876C59.8253 32.6835 59.1983 32.5942 58.461 32.5122L58.0193 36.4878C58.722 36.5658 59.175 36.6365 59.4263 36.6924L60.294 32.7876ZM58.461 32.5122C57.6821 32.4257 56.9472 32.38 56.2602 32.38V36.38C56.7731 36.38 57.3582 36.4143 58.0193 36.4878L58.461 32.5122ZM56.2602 32.38C55.3251 32.38 54.4203 32.4468 53.5482 32.5845L54.1721 36.5355C54.82 36.4332 55.5152 36.38 56.2602 36.38V32.38ZM53.6393 32.5722C52.721 32.6743 51.8471 32.9105 51.0457 33.3111L52.8346 36.8889C53.1532 36.7295 53.5593 36.6057 54.081 36.5478L53.6393 32.5722ZM51.0457 33.3111C50.2018 33.7331 49.4854 34.3366 48.9561 35.1306L52.2843 37.3494C52.3949 37.1834 52.5585 37.0269 52.8346 36.8889L51.0457 33.3111ZM48.9561 35.1306C48.3683 36.0123 48.1402 37.0233 48.1402 38.04H52.1402C52.1402 37.6167 52.232 37.4277 52.2843 37.3494L48.9561 35.1306ZM48.1402 38.04C48.1402 39.8999 48.7855 41.6568 50.4803 42.6884L52.5601 39.2716C52.4148 39.1832 52.1402 38.9801 52.1402 38.04H48.1402ZM50.5676 42.7386C51.9306 43.4769 53.6012 43.76 55.4202 43.76V39.76C53.9591 39.76 53.0297 39.5231 52.4727 39.2214L50.5676 42.7386ZM54.7002 17.6C57.2051 17.6 59.1698 17.8868 60.6548 18.393L61.9455 14.607C59.9106 13.9132 57.4752 13.6 54.7002 13.6V17.6ZM60.6548 18.393C62.1688 18.9092 63.2636 19.6106 64.0346 20.4409L66.9657 17.7191C65.6567 16.3094 63.9515 15.2908 61.9455 14.607L60.6548 18.393ZM64.0605 20.4683C64.893 21.3316 65.4943 22.3905 65.8517 23.6903L69.7086 22.6297C69.186 20.7295 68.2673 19.0684 66.9398 17.6917L64.0605 20.4683ZM65.8517 23.6903C66.2366 25.0897 66.4402 26.6878 66.4402 28.5H70.4402C70.4402 26.3922 70.2037 24.4303 69.7086 22.6297L65.8517 23.6903ZM66.4402 28.5V47.1H70.4402V28.5H66.4402ZM68.0128 45.1462C66.7892 45.4138 65.0538 45.7267 62.7882 46.0845L63.4121 50.0355C65.7065 49.6733 67.5311 49.3462 68.8676 49.0538L68.0128 45.1462ZM62.7546 46.0901C60.6237 46.4639 57.9863 46.66 54.8202 46.66V50.66C58.134 50.66 61.0166 50.4561 63.4458 50.0299L62.7546 46.0901ZM54.8202 46.66C52.8956 46.66 51.1787 46.49 49.6592 46.1644L48.8211 50.0756C50.6616 50.47 52.6647 50.66 54.8202 50.66V46.66ZM49.669 46.1665C48.2326 45.8512 47.0517 45.3573 46.0896 44.7159L43.8708 48.0441C45.3087 49.0027 46.9677 49.6688 48.8113 50.0735L49.669 46.1665ZM46.1271 44.7415C45.2068 44.0973 44.5113 43.2812 44.0198 42.2675L40.4205 44.0125C41.209 45.6388 42.3535 46.9827 43.8332 48.0185L46.1271 44.7415ZM44.0198 42.2675C43.5458 41.29 43.2602 39.9874 43.2602 38.28H39.2602C39.2602 40.4126 39.6145 42.35 40.4205 44.0125L44.0198 42.2675ZM43.2602 38.28C43.2602 36.6979 43.5692 35.4945 44.0833 34.5805L40.597 32.6195C39.6711 34.2655 39.2602 36.1821 39.2602 38.28H43.2602ZM44.0599 34.6211C44.658 33.6137 45.4291 32.8313 46.3853 32.2452L44.295 28.8348C42.7712 29.7687 41.5423 31.0263 40.6204 32.5789L44.0599 34.6211ZM46.3853 32.2452C47.4015 31.6224 48.5954 31.1606 49.9924 30.8812L49.2079 26.9588C47.4049 27.3194 45.7588 27.9376 44.295 28.8348L46.3853 32.2452ZM50.0392 30.8712C51.4882 30.5452 53.0007 30.38 54.5802 30.38V26.38C52.7196 26.38 50.9121 26.5748 49.1611 26.9688L50.0392 30.8712ZM54.5802 30.38C55.6754 30.38 56.6018 30.4369 57.3699 30.5417L57.9104 26.5783C56.9186 26.4431 55.8049 26.38 54.5802 26.38V30.38ZM57.4669 30.5525C58.3242 30.627 58.9233 30.7324 59.3107 30.843L60.4096 26.997C59.677 26.7876 58.7961 26.653 57.8134 26.5675L57.4669 30.5525ZM61.8602 28.92V28.08H57.8602V28.92H61.8602ZM61.8602 28.08C61.8602 26.1259 61.2525 24.3639 59.8944 23.0058L57.0659 25.8342C57.5478 26.3161 57.8602 26.9941 57.8602 28.08H61.8602ZM59.8944 23.0058C58.401 21.5124 56.1216 21.04 53.6802 21.04V25.04C55.7987 25.04 56.7194 25.4876 57.0659 25.8342L59.8944 23.0058ZM53.6802 21.04C52.0544 21.04 50.4473 21.1684 48.86 21.4258L49.5003 25.3742C50.873 25.1516 52.2659 25.04 53.6802 25.04V21.04ZM48.9123 21.418C47.327 21.6322 45.8971 21.961 44.6455 22.4245L46.0348 26.1755C46.9432 25.839 48.0733 25.5678 49.448 25.382L48.9123 21.418ZM47.3155 23.9872L46.1755 16.7872L42.2248 17.4128L43.3648 24.6128L47.3155 23.9872ZM44.7883 19.0116C45.2317 18.8751 45.8088 18.7294 46.5322 18.5771L45.7081 14.6629C44.9116 14.8306 44.2086 15.0049 43.612 15.1884L44.7883 19.0116ZM46.6052 18.5603C47.3221 18.3811 48.1058 18.2345 48.9588 18.1232L48.4415 14.1568C47.4545 14.2855 46.5182 14.4589 45.6351 14.6797L46.6052 18.5603ZM49.0428 18.1104C49.8979 17.9617 50.7966 17.8491 51.7396 17.7736L51.4207 13.7864C50.3638 13.8709 49.3424 13.9983 48.3575 14.1696L49.0428 18.1104ZM51.8094 17.7668C52.7738 17.6555 53.7373 17.6 54.7002 17.6V13.6C53.583 13.6 52.4665 13.6645 51.3509 13.7932L51.8094 17.7668ZM76.5242 48H74.5242V50H76.5242V48ZM76.5242 2.88L76.2062 0.905449L74.5242 1.17637V2.88H76.5242ZM85.4642 1.44H87.4642V-0.907927L85.1462 -0.534551L85.4642 1.44ZM85.4642 16.56H83.4642V19.3348L86.0967 18.4574L85.4642 16.56ZM87.7442 16.02L88.0869 17.9904L88.1196 17.9847L88.1521 17.978L87.7442 16.02ZM96.8642 16.8L96.0764 18.6383L96.1025 18.6495L96.1289 18.6599L96.8642 16.8ZM100.944 19.74L99.3682 20.9713L99.3799 20.9863L99.392 21.0012L100.944 19.74ZM103.104 24.3L101.154 24.7432L101.159 24.7642L101.164 24.7851L103.104 24.3ZM103.764 48V50H105.764V48H103.764ZM94.8242 48H92.8242V50H94.8242V48ZM93.6842 25.14L91.9692 26.169L91.9817 26.1897L91.9946 26.2101L93.6842 25.14ZM87.3242 23.58L87.6718 25.5496L87.7151 25.5419L87.7581 25.5324L87.3242 23.58ZM85.4642 24L84.9148 22.077L83.4642 22.4914V24H85.4642ZM85.4642 48V50H87.4642V48H85.4642ZM78.5242 48V2.88H74.5242V48H78.5242ZM76.8423 4.85455L85.7823 3.41455L85.1462 -0.534551L76.2062 0.905449L76.8423 4.85455ZM83.4642 1.44V16.56H87.4642V1.44H83.4642ZM86.0967 18.4574C86.569 18.2999 87.2236 18.1406 88.0869 17.9904L87.4015 14.0496C86.4249 14.2194 85.5594 14.4201 84.8318 14.6626L86.0967 18.4574ZM88.1521 17.978C88.993 17.8028 89.7758 17.72 90.5042 17.72V13.72C89.4726 13.72 88.4155 13.8372 87.3363 14.062L88.1521 17.978ZM90.5042 17.72C92.8943 17.72 94.7238 18.0586 96.0764 18.6383L97.6521 14.9617C95.6446 14.1014 93.2341 13.72 90.5042 13.72V17.72ZM96.1289 18.6599C97.5645 19.2275 98.6165 20.0091 99.3682 20.9713L102.52 18.5087C101.272 16.9109 99.604 15.7325 97.5995 14.9401L96.1289 18.6599ZM99.392 21.0012C100.22 22.0209 100.816 23.2541 101.154 24.7432L105.054 23.8568C104.593 21.8259 103.748 20.0191 102.496 18.4788L99.392 21.0012ZM101.164 24.7851C101.558 26.3597 101.764 28.1535 101.764 30.18H105.764C105.764 27.8865 105.531 25.7603 105.045 23.8149L101.164 24.7851ZM101.764 30.18V48H105.764V30.18H101.764ZM103.764 46H94.8242V50H103.764V46ZM96.8242 48V31.26H92.8242V48H96.8242ZM96.8242 31.26C96.8242 28.3191 96.4575 25.7809 95.3739 24.0699L91.9946 26.2101C92.431 26.8991 92.8242 28.4408 92.8242 31.26H96.8242ZM95.3992 24.111C94.1747 22.0701 91.9749 21.34 89.6042 21.34V25.34C91.2336 25.34 91.7538 25.8099 91.9692 26.169L95.3992 24.111ZM89.6042 21.34C88.6705 21.34 87.7642 21.4334 86.8904 21.6276L87.7581 25.5324C88.3242 25.4066 88.9379 25.34 89.6042 25.34V21.34ZM86.9766 21.6104C86.2407 21.7403 85.552 21.8949 84.9148 22.077L86.0137 25.923C86.4964 25.7851 87.0478 25.6597 87.6718 25.5496L86.9766 21.6104ZM83.4642 24V48H87.4642V24H83.4642ZM85.4642 46H76.5242V50H85.4642V46ZM138.796 46.92L139.352 48.8411L140.796 48.4232V46.92H138.796ZM132.916 48.12L132.62 46.1421L132.603 46.1445L132.587 46.1472L132.916 48.12ZM118.636 47.64L117.879 49.4911L117.886 49.4941L117.893 49.497L118.636 47.64ZM114.436 44.64L112.865 45.8777L112.875 45.8895L112.884 45.9012L114.436 44.64ZM111.556 16.44V14.44H109.556V16.44H111.556ZM120.496 16.44H122.496V14.44H120.496V16.44ZM121.636 39.18L119.917 40.2011L119.917 40.2011L121.636 39.18ZM127.936 41.04L128.047 43.0369L128.102 43.0339L128.157 43.0278L127.936 41.04ZM129.856 40.8L130.139 42.7799L131.856 42.5346V40.8H129.856ZM129.856 16.44V14.44H127.856V16.44H129.856ZM138.796 16.44H140.796V14.44H138.796V16.44ZM138.24 44.9989C136.837 45.4049 134.973 45.7891 132.62 46.1421L133.213 50.0979C135.66 49.7309 137.715 49.3151 139.352 48.8411L138.24 44.9989ZM132.587 46.1472C130.305 46.5276 127.895 46.72 125.356 46.72V50.72C128.097 50.72 130.728 50.5124 133.245 50.0928L132.587 46.1472ZM125.356 46.72C122.84 46.72 120.871 46.3799 119.379 45.783L117.893 49.497C120.001 50.3401 122.512 50.72 125.356 50.72V46.72ZM119.394 45.7889C117.896 45.1762 116.787 44.3613 115.988 43.3788L112.884 45.9012C114.166 47.4787 115.857 48.6638 117.879 49.4911L119.394 45.7889ZM116.007 43.4023C115.162 42.3292 114.538 41.0359 114.159 39.4851L110.273 40.4349C110.774 42.4841 111.631 44.3108 112.865 45.8777L116.007 43.4023ZM114.159 39.4851C113.763 37.8637 113.556 36.0457 113.556 34.02H109.556C109.556 36.3143 109.79 38.4563 110.273 40.4349L114.159 39.4851ZM113.556 34.02V16.44H109.556V34.02H113.556ZM111.556 18.44H120.496V14.44H111.556V18.44ZM118.496 16.44V32.94H122.496V16.44H118.496ZM118.496 32.94C118.496 35.9002 118.87 38.4379 119.917 40.2011L123.356 38.1589C122.883 37.3621 122.496 35.7398 122.496 32.94H118.496ZM119.917 40.2011C121.172 42.3153 123.422 43.1 125.896 43.1V39.1C124.21 39.1 123.621 38.6047 123.356 38.1589L119.917 40.2011ZM125.896 43.1C126.578 43.1 127.295 43.0787 128.047 43.0369L127.825 39.0431C127.138 39.0813 126.495 39.1 125.896 39.1V43.1ZM128.157 43.0278C128.892 42.9461 129.554 42.8635 130.139 42.7799L129.573 38.8201C129.039 38.8965 128.42 38.9739 127.715 39.0522L128.157 43.0278ZM131.856 40.8V16.44H127.856V40.8H131.856ZM129.856 18.44H138.796V14.44H129.856V18.44ZM136.796 16.44V46.92H140.796V16.44H136.796ZM146.888 8.58L146.57 6.60545L144.888 6.87637V8.58H146.888ZM155.828 7.14H157.828V4.79207L155.51 5.16545L155.828 7.14ZM155.828 16.44H153.828V18.44H155.828V16.44ZM166.568 16.44H168.568V14.44H166.568V16.44ZM166.568 23.88V25.88H168.568V23.88H166.568ZM155.828 23.88V21.88H153.828V23.88H155.828ZM156.788 39.48L155.052 40.4723L155.065 40.4953L155.079 40.518L156.788 39.48ZM163.748 40.92L164.064 42.8949L164.095 42.8899L164.126 42.884L163.748 40.92ZM166.568 40.14L168.536 39.7837L168.107 37.4135L165.856 38.271L166.568 40.14ZM167.828 47.1L168.583 48.9522L170.085 48.3401L169.796 46.7437L167.828 47.1ZM164.228 48.24L163.757 46.2963L163.757 46.2963L164.228 48.24ZM153.308 47.76L152.526 49.6007L152.546 49.609L152.566 49.617L153.308 47.76ZM149.468 45L147.907 46.2494L147.917 46.2623L147.927 46.2751L149.468 45ZM147.428 40.68L145.473 41.0991L145.477 41.1212L145.483 41.1432L147.428 40.68ZM147.206 10.5545L156.146 9.11455L155.51 5.16545L146.57 6.60545L147.206 10.5545ZM153.828 7.14V16.44H157.828V7.14H153.828ZM155.828 18.44H166.568V14.44H155.828V18.44ZM164.568 16.44V23.88H168.568V16.44H164.568ZM166.568 21.88H155.828V25.88H166.568V21.88ZM153.828 23.88V34.98H157.828V23.88H153.828ZM153.828 34.98C153.828 37.0592 154.178 38.9428 155.052 40.4723L158.525 38.4877C158.119 37.7772 157.828 36.6608 157.828 34.98H153.828ZM155.079 40.518C156.287 42.5082 158.503 43.16 160.808 43.16V39.16C159.114 39.16 158.649 38.6918 158.498 38.442L155.079 40.518ZM160.808 43.16C161.88 43.16 162.965 43.0707 164.064 42.8949L163.432 38.9451C162.531 39.0893 161.657 39.16 160.808 39.16V43.16ZM164.126 42.884C165.26 42.6658 166.315 42.3768 167.28 42.009L165.856 38.271C165.142 38.5432 164.316 38.7742 163.371 38.956L164.126 42.884ZM164.6 40.4963L165.86 47.4563L169.796 46.7437L168.536 39.7837L164.6 40.4963ZM167.074 45.2478C166.099 45.6448 164.996 45.996 163.757 46.2963L164.699 50.1837C166.101 49.844 167.397 49.4352 168.583 48.9522L167.074 45.2478ZM163.757 46.2963C162.64 46.5671 161.189 46.72 159.368 46.72V50.72C161.387 50.72 163.176 50.5529 164.699 50.1837L163.757 46.2963ZM159.368 46.72C157.085 46.72 155.338 46.418 154.051 45.903L152.566 49.617C154.478 50.382 156.772 50.72 159.368 50.72V46.72ZM154.091 45.9193C152.739 45.345 151.736 44.6028 151.009 43.7249L147.927 46.2751C149.121 47.7172 150.677 48.815 152.526 49.6007L154.091 45.9193ZM151.03 43.7506C150.276 42.8082 149.714 41.6453 149.374 40.2168L145.483 41.1432C145.943 43.0747 146.74 44.7918 147.907 46.2494L151.03 43.7506ZM149.384 40.2609C149.058 38.7414 148.888 37.0245 148.888 35.1H144.888C144.888 37.2555 145.078 39.2586 145.473 41.0991L149.384 40.2609ZM148.888 35.1V8.58H144.888V35.1H148.888ZM170.563 26.04V24.04H168.563V26.04H170.563ZM187.963 26.04H189.963V24.04H187.963V26.04ZM187.963 34.14V36.14H189.963V34.14H187.963ZM170.563 34.14H168.563V36.14H170.563V34.14ZM170.563 28.04H187.963V24.04H170.563V28.04ZM185.963 26.04V34.14H189.963V26.04H185.963ZM187.963 32.14H170.563V36.14H187.963V32.14ZM172.563 34.14V26.04H168.563V34.14H172.563ZM203.836 38.64L205.445 37.4523L205.445 37.4523L203.836 38.64ZM211.576 41.1L211.694 43.0965L211.752 43.0931L211.81 43.0863L211.576 41.1ZM213.256 40.86L213.614 42.8277L215.256 42.5292V40.86H213.256ZM213.256 24.6H215.256V23.5081L214.338 22.9176L213.256 24.6ZM211.036 23.7L210.51 25.6295L210.521 25.6324L210.531 25.6352L211.036 23.7ZM222.196 46.98L222.771 48.8957L224.196 48.4681V46.98H222.196ZM219.436 47.7L219.814 49.664L219.85 49.6571L219.886 49.6488L219.436 47.7ZM216.136 48.24L215.863 46.2587L215.853 46.2601L216.136 48.24ZM212.656 48.6L212.523 46.6044L212.487 46.6069L212.45 46.6106L212.656 48.6ZM197.176 44.4L195.742 45.7942L195.752 45.8043L195.762 45.8142L197.176 44.4ZM193.936 39.24L192.05 39.9056L192.058 39.9281L192.067 39.9504L193.936 39.24ZM193.816 25.5L195.725 26.0987L195.728 26.0882L193.816 25.5ZM196.576 20.22L195.04 18.9396L195.04 18.9396L196.576 20.22ZM200.956 16.92L200.163 15.0839L200.156 15.0872L200.148 15.0906L200.956 16.92ZM210.256 16.14L209.771 18.0803L209.78 18.0826L209.79 18.0848L210.256 16.14ZM213.256 17.16L212.451 18.9906L215.256 20.225V17.16H213.256ZM213.256 2.88L212.938 0.905449L211.256 1.17637V2.88H213.256ZM222.196 1.44H224.196V-0.907927L221.878 -0.534551L222.196 1.44ZM199.976 31.98C199.976 35.0307 200.663 37.708 202.227 39.8277L205.445 37.4523C204.53 36.212 203.976 34.4493 203.976 31.98H199.976ZM202.227 39.8277C203.911 42.1091 206.403 43.16 209.356 43.16V39.16C207.429 39.16 206.242 38.5309 205.445 37.4523L202.227 39.8277ZM209.356 43.16C210.189 43.16 210.969 43.1392 211.694 43.0965L211.459 39.1035C210.824 39.1408 210.124 39.16 209.356 39.16V43.16ZM211.81 43.0863C212.512 43.0037 213.117 42.918 213.614 42.8277L212.898 38.8923C212.515 38.962 212 39.0363 211.343 39.1137L211.81 43.0863ZM215.256 40.86V24.6H211.256V40.86H215.256ZM214.338 22.9176C213.542 22.406 212.586 22.0372 211.541 21.7648L210.531 25.6352C211.327 25.8428 211.851 26.074 212.175 26.2824L214.338 22.9176ZM211.562 21.7705C210.509 21.4833 209.432 21.34 208.336 21.34V25.34C209.08 25.34 209.803 25.4367 210.51 25.6295L211.562 21.7705ZM208.336 21.34C205.714 21.34 203.465 22.2635 201.956 24.3144C200.53 26.2508 199.976 28.9134 199.976 31.98H203.976C203.976 29.2866 204.482 27.6292 205.177 26.6856C205.787 25.8565 206.718 25.34 208.336 25.34V21.34ZM221.622 45.0643C220.872 45.2891 219.995 45.5184 218.987 45.7512L219.886 49.6488C220.957 49.4016 221.92 49.1509 222.771 48.8957L221.622 45.0643ZM219.059 45.736C218.057 45.9287 216.992 46.1031 215.863 46.2588L216.41 50.2212C217.601 50.0569 218.736 49.8713 219.814 49.664L219.059 45.736ZM215.853 46.2601C214.786 46.4126 213.676 46.5276 212.523 46.6044L212.789 50.5956C214.036 50.5124 215.246 50.3874 216.419 50.2199L215.853 46.2601ZM212.45 46.6106C211.353 46.7241 210.302 46.78 209.296 46.78V50.78C210.45 50.78 211.639 50.7159 212.862 50.5894L212.45 46.6106ZM209.296 46.78C206.889 46.78 204.812 46.4282 203.034 45.7658L201.638 49.5142C203.94 50.3718 206.503 50.78 209.296 50.78V46.78ZM203.034 45.7658C201.236 45.0959 199.768 44.1634 198.59 42.9858L195.762 45.8142C197.384 47.4366 199.356 48.6641 201.638 49.5142L203.034 45.7658ZM198.61 43.0058C197.413 41.7742 196.475 40.2912 195.806 38.5296L192.067 39.9504C192.917 42.1888 194.14 44.1458 195.742 45.7942L198.61 43.0058ZM195.822 38.5744C195.189 36.7802 194.856 34.7299 194.856 32.4H190.856C190.856 35.1101 191.244 37.6198 192.05 39.9056L195.822 38.5744ZM194.856 32.4C194.856 30.0043 195.156 27.9111 195.725 26.0987L191.908 24.9013C191.197 27.1689 190.856 29.6757 190.856 32.4H194.856ZM195.728 26.0882C196.302 24.2212 197.107 22.7067 198.113 21.5004L195.04 18.9396C193.645 20.6133 192.61 22.6188 191.905 24.9118L195.728 26.0882ZM198.113 21.5004C199.115 20.2978 200.325 19.3853 201.765 18.7494L200.148 15.0906C198.147 15.9747 196.438 17.2622 195.04 18.9396L198.113 21.5004ZM201.749 18.7561C203.22 18.1209 204.944 17.78 206.956 17.78V13.78C204.489 13.78 202.212 14.1991 200.163 15.0839L201.749 18.7561ZM206.956 17.78C208.072 17.78 209.004 17.8884 209.771 18.0803L210.741 14.1997C209.589 13.9115 208.321 13.78 206.956 13.78V17.78ZM209.79 18.0848C210.666 18.2952 211.553 18.5957 212.451 18.9906L214.062 15.3294C212.959 14.8443 211.846 14.4648 210.723 14.1952L209.79 18.0848ZM215.256 17.16V2.88H211.256V17.16H215.256ZM213.574 4.85455L222.514 3.41455L221.878 -0.534551L212.938 0.905449L213.574 4.85455ZM220.196 1.44V46.98H224.196V1.44H220.196ZM230.327 25.14L228.48 24.3732L228.476 24.3821L228.473 24.3911L230.327 25.14ZM233.747 19.86L232.333 18.4458L232.333 18.4458L233.747 19.86ZM238.547 16.68L237.818 14.8175L237.811 14.8203L237.804 14.823L238.547 16.68ZM254.807 19.74L253.351 21.1114L253.356 21.1167L253.361 21.122L254.807 19.74ZM258.647 33.54L260.643 33.673L260.643 33.6648L258.647 33.54ZM258.527 35.16V37.16H260.367L260.52 35.3261L258.527 35.16ZM238.247 35.16V33.16H236.018L236.259 35.3761L238.247 35.16ZM240.827 39.54L239.669 41.1704L239.669 41.1704L240.827 39.54ZM251.747 40.74L252.101 42.7085L252.12 42.705L252.139 42.7012L251.747 40.74ZM255.647 39.6L257.62 39.2738L257.2 36.7316L254.842 37.7694L255.647 39.6ZM256.847 46.86L257.742 48.6489L259.061 47.9892L258.82 46.5338L256.847 46.86ZM254.927 47.58L254.352 45.6643L254.352 45.6643L254.927 47.58ZM252.227 48.18L251.911 46.2051L251.865 46.2125L251.819 46.222L252.227 48.18ZM249.107 48.66L249.32 50.6486L249.32 50.6486L249.107 48.66ZM238.307 47.58L237.558 49.4345L237.57 49.4394L238.307 47.58ZM233.087 44.16L231.615 45.5133L231.634 45.534L231.653 45.5542L233.087 44.16ZM230.027 38.94L228.122 39.5496L228.128 39.5667L228.134 39.5838L230.027 38.94ZM250.067 29.04V31.04H252.175L252.064 28.9349L250.067 29.04ZM249.647 26.82L247.72 27.3553L247.734 27.4042L247.75 27.4525L249.647 26.82ZM248.627 24.9L247.055 26.1356L247.081 26.1692L247.109 26.2016L248.627 24.9ZM246.887 23.52L245.951 25.2876L245.972 25.2985L245.993 25.3089L246.887 23.52ZM241.727 23.52L242.539 25.3476L242.581 25.3292L242.622 25.3089L241.727 23.52ZM238.787 26.82L236.911 26.1286L236.9 26.1579L236.89 26.1875L238.787 26.82ZM238.247 29.04L236.272 28.7281L235.907 31.04H238.247V29.04ZM231.067 32.46C231.067 29.8552 231.458 27.6799 232.182 25.8889L228.473 24.3911C227.516 26.7601 227.067 29.4648 227.067 32.46H231.067ZM232.174 25.9068C232.97 23.9907 233.974 22.4617 235.161 21.2742L232.333 18.4458C230.72 20.0583 229.445 22.0493 228.48 24.3732L232.174 25.9068ZM235.161 21.2742C236.374 20.0616 237.747 19.1542 239.29 18.537L237.804 14.823C235.747 15.6458 233.92 16.8584 232.333 18.4458L235.161 21.2742ZM239.276 18.5425C240.891 17.9107 242.524 17.6 244.187 17.6V13.6C242.011 13.6 239.884 14.0093 237.818 14.8175L239.276 18.5425ZM244.187 17.6C248.225 17.6 251.198 18.8253 253.351 21.1114L256.263 18.3686C253.217 15.1347 249.11 13.6 244.187 13.6V17.6ZM253.361 21.122C255.481 23.3395 256.707 26.7808 256.707 31.8H260.707C260.707 26.1792 259.333 21.5805 256.253 18.358L253.361 21.122ZM256.707 31.8C256.707 32.2701 256.689 32.8076 256.651 33.4152L260.643 33.6648C260.685 32.9924 260.707 32.3699 260.707 31.8H256.707ZM256.652 33.407C256.612 33.9985 256.573 34.5272 256.534 34.9939L260.52 35.3261C260.561 34.8328 260.602 34.2815 260.643 33.673L256.652 33.407ZM258.527 33.16H238.247V37.16H258.527V33.16ZM236.259 35.3761C236.521 37.7893 237.687 39.7621 239.669 41.1704L241.986 37.9096C240.928 37.1579 240.373 36.2107 240.235 34.9439L236.259 35.3761ZM239.669 41.1704C241.633 42.5656 244.123 43.16 246.947 43.16V39.16C244.651 39.16 243.062 38.6744 241.986 37.9096L239.669 41.1704ZM246.947 43.16C248.702 43.16 250.42 43.0102 252.101 42.7085L251.394 38.7715C249.954 39.0298 248.473 39.16 246.947 39.16V43.16ZM252.139 42.7012C253.819 42.3652 255.272 41.95 256.453 41.4306L254.842 37.7694C254.022 38.13 252.875 38.4748 251.355 38.7788L252.139 42.7012ZM253.674 39.9262L254.874 47.1862L258.82 46.5338L257.62 39.2738L253.674 39.9262ZM255.953 45.0711C255.616 45.2397 255.096 45.4413 254.352 45.6643L255.502 49.4957C256.359 49.2387 257.119 48.9603 257.742 48.6489L255.953 45.0711ZM254.352 45.6643C253.653 45.8742 252.841 46.0563 251.911 46.2051L252.543 50.1549C253.613 49.9837 254.601 49.7658 255.502 49.4957L254.352 45.6643ZM251.819 46.222C250.932 46.4068 249.958 46.5574 248.894 46.6714L249.32 50.6486C250.496 50.5226 251.602 50.3532 252.635 50.138L251.819 46.222ZM248.894 46.6714C247.844 46.7838 246.796 46.84 245.747 46.84V50.84C246.939 50.84 248.13 50.7762 249.32 50.6486L248.894 46.6714ZM245.747 46.84C243.1 46.84 240.88 46.448 239.044 45.7206L237.57 49.4394C239.975 50.392 242.715 50.84 245.747 50.84V46.84ZM239.056 45.7255C237.204 44.9774 235.706 43.9843 234.521 42.7658L231.653 45.5542C233.269 47.2157 235.251 48.5026 237.558 49.4345L239.056 45.7255ZM234.56 42.8067C233.397 41.5418 232.516 40.0467 231.921 38.2962L228.134 39.5838C228.898 41.8333 230.057 43.8182 231.615 45.5133L234.56 42.8067ZM231.932 38.3304C231.361 36.547 231.067 34.5946 231.067 32.46H227.067C227.067 34.9654 227.413 37.333 228.122 39.5496L231.932 38.3304ZM252.064 28.9349C252.015 27.9959 251.842 27.0785 251.545 26.1875L247.75 27.4525C247.933 28.0015 248.039 28.5641 248.07 29.1451L252.064 28.9349ZM251.574 26.2847C251.297 25.2863 250.819 24.3838 250.146 23.5984L247.109 26.2016C247.395 26.5361 247.597 26.9137 247.72 27.3553L251.574 26.2847ZM250.2 23.6644C249.555 22.8436 248.731 22.2059 247.782 21.7311L245.993 25.3089C246.483 25.5541 246.819 25.8364 247.055 26.1356L250.2 23.6644ZM247.823 21.7524C246.771 21.1956 245.564 20.98 244.307 20.98V24.98C245.131 24.98 245.643 25.1244 245.951 25.2876L247.823 21.7524ZM244.307 20.98C243.07 20.98 241.89 21.2027 240.833 21.7311L242.622 25.3089C243.005 25.1173 243.544 24.98 244.307 24.98V20.98ZM240.915 21.6924C239.942 22.1247 239.095 22.7376 238.409 23.5384L241.446 26.1416C241.719 25.8224 242.072 25.5553 242.539 25.3476L240.915 21.6924ZM238.409 23.5384C237.759 24.2958 237.265 25.1674 236.911 26.1286L240.664 27.5114C240.87 26.9526 241.135 26.5042 241.446 26.1416L238.409 23.5384ZM236.89 26.1875C236.615 27.0135 236.409 27.8608 236.272 28.7281L240.223 29.3519C240.326 28.6992 240.48 28.0665 240.685 27.4525L236.89 26.1875ZM238.247 31.04H250.067V27.04H238.247V31.04ZM274.186 48L272.405 48.9087L272.961 50H274.186V48ZM267.946 33.96L266.082 34.6836L266.086 34.6956L267.946 33.96ZM262.006 16.44V14.44H259.325L260.089 17.0102L262.006 16.44ZM271.486 16.44L273.424 15.9432L273.038 14.44H271.486V16.44ZM272.866 21.54L270.942 22.0839L270.949 22.1091L270.957 22.1341L272.866 21.54ZM274.546 27.06L272.629 27.631L272.637 27.6556L272.645 27.68L274.546 27.06ZM276.286 32.46L274.38 33.0664L274.387 33.0859L274.393 33.1053L276.286 32.46ZM278.026 37.26L276.162 37.9849L278.096 42.9564L279.907 37.9393L278.026 37.26ZM279.706 32.46L277.813 31.8147L277.813 31.8147L279.706 32.46ZM281.446 27.06L279.541 26.4519L279.537 26.4648L279.533 26.4777L281.446 27.06ZM283.126 21.54L281.213 20.9577L281.209 20.9713L281.205 20.9849L283.126 21.54ZM284.566 16.44V14.44H283.014L282.629 15.9432L284.566 16.44ZM293.806 16.44L295.723 17.0102L296.488 14.44H293.806V16.44ZM287.806 33.96L285.946 33.2244L285.942 33.2364L287.806 33.96ZM281.626 48V50H282.851L283.408 48.9087L281.626 48ZM275.968 47.0913C273.963 43.1609 271.909 38.5411 269.806 33.2244L266.086 34.6956C268.224 40.0989 270.329 44.8391 272.405 48.9087L275.968 47.0913ZM269.811 33.2364C267.753 27.9335 265.79 22.1453 263.923 15.8698L260.089 17.0102C261.982 23.3747 263.98 29.2665 266.082 34.6835L269.811 33.2364ZM262.006 18.44H271.486V14.44H262.006V18.44ZM269.549 16.9367C269.954 18.5151 270.418 20.231 270.942 22.0839L274.791 20.9961C274.275 19.169 273.819 17.4849 273.424 15.9432L269.549 16.9367ZM270.957 22.1341C271.514 23.9261 272.072 25.7584 272.629 27.631L276.463 26.489C275.901 24.6016 275.338 22.7539 274.776 20.9459L270.957 22.1341ZM272.645 27.68C273.243 29.5157 273.822 31.3112 274.38 33.0664L278.192 31.8536C277.631 30.0888 277.049 28.2843 276.448 26.44L272.645 27.68ZM274.393 33.1053C275.001 34.8869 275.59 36.5139 276.162 37.9849L279.89 36.5351C279.342 35.1261 278.772 33.5531 278.179 31.8147L274.393 33.1053ZM279.907 37.9393C280.432 36.4859 280.996 34.8744 281.599 33.1053L277.813 31.8147C277.216 33.5656 276.66 35.1541 276.145 36.5807L279.907 37.9393ZM281.599 33.1053C282.207 31.3238 282.793 29.5027 283.36 27.6423L279.533 26.4777C278.979 28.2973 278.406 30.0762 277.813 31.8147L281.599 33.1053ZM283.352 27.6681C283.957 25.7714 284.522 23.9137 285.048 22.0951L281.205 20.9849C280.69 22.7663 280.136 24.5886 279.541 26.4519L283.352 27.6681ZM285.04 22.1223C285.607 20.2592 286.095 18.5303 286.504 16.9367L282.629 15.9432C282.238 17.4697 281.766 19.1408 281.213 20.9577L285.04 22.1223ZM284.566 18.44H293.806V14.44H284.566V18.44ZM291.889 15.8698C290.024 22.1416 288.042 27.9257 285.946 33.2244L289.666 34.6956C291.81 29.2743 293.829 23.3784 295.723 17.0102L291.889 15.8698ZM285.942 33.2364C283.88 38.5499 281.847 43.1655 279.845 47.0913L283.408 48.9087C285.486 44.8345 287.573 40.0901 289.671 34.6835L285.942 33.2364ZM281.626 46H274.186V50H281.626V46Z" fill="#6C00F5"/>
</g>
<rect x="0.5" y="0.5" width="299" height="63" stroke="url(#paint0_linear_2_2)"/>
</g>
<defs>
<filter id="filter0_i_2_2" x="0" y="0" width="300" height="68" filterUnits="userSpaceOnUse" color-interpolation-filters="sRGB">
<feFlood flood-opacity="0" result="BackgroundImageFix"/>
<feBlend mode="normal" in="SourceGraphic" in2="BackgroundImageFix" result="shape"/>
<feColorMatrix in="SourceAlpha" type="matrix" values="0 0 0 0 0 0 0 0 0 0 0 0 0 0 0 0 0 0 127 0" result="hardAlpha"/>
<feOffset dy="4"/>
<feGaussianBlur stdDeviation="3"/>
<feComposite in2="hardAlpha" operator="arithmetic" k2="-1" k3="1"/>
<feColorMatrix type="matrix" values="0 0 0 0 0.4235 0 0 0 0 0 0 0 0 0 0.9625 0 0 0 1 0"/>
<feBlend mode="normal" in2="shape" result="effect1_innerShadow_2_2"/>
</filter>
<linearGradient id="paint0_linear_2_2" x1="258" y1="1.81333" x2="239.558" y2="101.13" gradientUnits="userSpaceOnUse">
<stop stop-color="#FF06B9"/>
<stop offset="0.473958" stop-color="#00FF0A"/>
<stop offset="1" stop-color="#575757"/>
</linearGradient>
<clipPath id="clip0_2_2">
<rect width="300" height="64" fill="white"/>
</clipPath>
</defs>
</svg>
