<svg width="658" height="250" viewBox="0 0 658 250" fill="none" xmlns="http://www.w3.org/2000/svg">
<path d="M28.28 120.68C30.04 118.76 31.84 116.76 33.68 114.68C35.6 112.6 37.44 110.56 39.2 108.56C40.96 106.48 42.6 104.52 44.12 102.68C45.72 100.84 47.08 99.24 48.2 97.88H69.44C65.2 102.76 61.04 107.44 56.96 111.92C52.96 116.32 48.56 120.88 43.76 125.6C46.16 127.76 48.64 130.36 51.2 133.4C53.76 136.36 56.24 139.44 58.64 142.64C61.04 145.84 63.24 149.04 65.24 152.24C67.24 155.44 68.92 158.36 70.28 161H49.76C48.48 158.92 47 156.64 45.32 154.16C43.72 151.6 42 149.08 40.16 146.6C38.32 144.04 36.36 141.6 34.28 139.28C32.28 136.96 30.28 135 28.28 133.4V161H10.4V70.76L28.28 67.88V120.68ZM102.84 148.52C104.6 148.52 106.28 148.48 107.88 148.4C109.48 148.32 110.76 148.2 111.72 148.04V134.48C111 134.32 109.92 134.16 108.48 134C107.04 133.84 105.72 133.76 104.52 133.76C102.84 133.76 101.24 133.88 99.7203 134.12C98.2803 134.28 97.0003 134.64 95.8803 135.2C94.7603 135.76 93.8803 136.52 93.2403 137.48C92.6003 138.44 92.2803 139.64 92.2803 141.08C92.2803 143.88 93.2003 145.84 95.0403 146.96C96.9603 148 99.5603 148.52 102.84 148.52ZM101.4 96.2C106.68 96.2 111.08 96.8 114.6 98C118.12 99.2 120.92 100.92 123 103.16C125.16 105.4 126.68 108.12 127.56 111.32C128.44 114.52 128.88 118.08 128.88 122V159.2C126.32 159.76 122.76 160.4 118.2 161.12C113.64 161.92 108.12 162.32 101.64 162.32C97.5603 162.32 93.8403 161.96 90.4803 161.24C87.2003 160.52 84.3603 159.36 81.9603 157.76C79.5603 156.08 77.7203 153.92 76.4403 151.28C75.1603 148.64 74.5203 145.4 74.5203 141.56C74.5203 137.88 75.2403 134.76 76.6803 132.2C78.2003 129.64 80.2003 127.6 82.6803 126.08C85.1603 124.56 88.0003 123.48 91.2003 122.84C94.4003 122.12 97.7203 121.76 101.16 121.76C103.48 121.76 105.52 121.88 107.28 122.12C109.12 122.28 110.6 122.52 111.72 122.84V121.16C111.72 118.12 110.8 115.68 108.96 113.84C107.12 112 103.92 111.08 99.3603 111.08C96.3203 111.08 93.3203 111.32 90.3603 111.8C87.4003 112.2 84.8403 112.8 82.6803 113.6L80.4003 99.2C81.4403 98.88 82.7203 98.56 84.2403 98.24C85.8403 97.84 87.5603 97.52 89.4003 97.28C91.2403 96.96 93.1603 96.72 95.1603 96.56C97.2403 96.32 99.3203 96.2 101.4 96.2ZM145.048 161V70.76L162.928 67.88V98.12C164.128 97.72 165.648 97.36 167.488 97.04C169.408 96.64 171.248 96.44 173.008 96.44C178.128 96.44 182.368 97.16 185.728 98.6C189.168 99.96 191.888 101.92 193.888 104.48C195.968 107.04 197.408 110.08 198.208 113.6C199.088 117.12 199.528 121.04 199.528 125.36V161H181.648V127.52C181.648 121.76 180.888 117.68 179.368 115.28C177.928 112.88 175.208 111.68 171.208 111.68C169.608 111.68 168.088 111.84 166.648 112.16C165.288 112.4 164.048 112.68 162.928 113V161H145.048ZM269.593 158.84C266.553 159.72 262.633 160.52 257.833 161.24C253.033 162.04 247.993 162.44 242.713 162.44C237.353 162.44 232.873 161.72 229.273 160.28C225.753 158.84 222.953 156.84 220.873 154.28C218.793 151.64 217.313 148.52 216.433 144.92C215.553 141.32 215.113 137.36 215.113 133.04V97.88H232.993V130.88C232.993 136.64 233.753 140.8 235.273 143.36C236.793 145.92 239.633 147.2 243.793 147.2C245.073 147.2 246.433 147.16 247.873 147.08C249.313 146.92 250.593 146.76 251.713 146.6V97.88H269.593V158.84ZM285.777 82.16L303.657 79.28V97.88H325.137V112.76H303.657V134.96C303.657 138.72 304.297 141.72 305.577 143.96C306.937 146.2 309.617 147.32 313.617 147.32C315.537 147.32 317.497 147.16 319.497 146.84C321.577 146.44 323.457 145.92 325.137 145.28L327.657 159.2C325.497 160.08 323.097 160.84 320.457 161.48C317.817 162.12 314.577 162.44 310.737 162.44C305.857 162.44 301.817 161.8 298.617 160.52C295.417 159.16 292.857 157.32 290.937 155C289.017 152.6 287.657 149.72 286.857 146.36C286.137 143 285.777 139.28 285.777 135.2V82.16Z" fill="url(#paint0_linear_7_2)"/>
<path d="M331.297 168.32H391.297V183.2H331.297V168.32Z" fill="#2EECFF"/>
<path d="M414.937 128.96C414.937 134.48 416.177 138.92 418.657 142.28C421.137 145.64 424.817 147.32 429.697 147.32C431.297 147.32 432.777 147.28 434.137 147.2C435.497 147.04 436.617 146.88 437.497 146.72V114.2C436.377 113.48 434.897 112.88 433.057 112.4C431.297 111.92 429.497 111.68 427.657 111.68C419.177 111.68 414.937 117.44 414.937 128.96ZM455.377 158.96C453.777 159.44 451.937 159.92 449.857 160.4C447.777 160.8 445.577 161.16 443.257 161.48C441.017 161.8 438.697 162.04 436.297 162.2C433.977 162.44 431.737 162.56 429.577 162.56C424.377 162.56 419.737 161.8 415.657 160.28C411.577 158.76 408.137 156.6 405.337 153.8C402.537 150.92 400.377 147.48 398.857 143.48C397.417 139.4 396.697 134.84 396.697 129.8C396.697 124.68 397.337 120.08 398.617 116C399.897 111.84 401.737 108.32 404.137 105.44C406.537 102.56 409.457 100.36 412.897 98.84C416.417 97.32 420.417 96.56 424.897 96.56C427.377 96.56 429.577 96.8 431.497 97.28C433.497 97.76 435.497 98.44 437.497 99.32V70.76L455.377 67.88V158.96ZM469.119 129.92C469.119 124.32 469.959 119.44 471.639 115.28C473.399 111.04 475.679 107.52 478.479 104.72C481.279 101.92 484.479 99.8 488.079 98.36C491.759 96.92 495.519 96.2 499.359 96.2C508.319 96.2 515.399 98.96 520.599 104.48C525.799 109.92 528.399 117.96 528.399 128.6C528.399 129.64 528.359 130.8 528.279 132.08C528.199 133.28 528.119 134.36 528.039 135.32H487.479C487.879 139 489.599 141.92 492.639 144.08C495.679 146.24 499.759 147.32 504.879 147.32C508.159 147.32 511.359 147.04 514.479 146.48C517.679 145.84 520.279 145.08 522.279 144.2L524.679 158.72C523.719 159.2 522.439 159.68 520.839 160.16C519.239 160.64 517.439 161.04 515.439 161.36C513.519 161.76 511.439 162.08 509.199 162.32C506.959 162.56 504.719 162.68 502.479 162.68C496.799 162.68 491.839 161.84 487.599 160.16C483.439 158.48 479.959 156.2 477.159 153.32C474.439 150.36 472.399 146.88 471.039 142.88C469.759 138.88 469.119 134.56 469.119 129.92ZM511.119 123.08C511.039 121.56 510.759 120.08 510.279 118.64C509.879 117.2 509.199 115.92 508.239 114.8C507.359 113.68 506.199 112.76 504.759 112.04C503.399 111.32 501.679 110.96 499.599 110.96C497.599 110.96 495.879 111.32 494.439 112.04C492.999 112.68 491.799 113.56 490.839 114.68C489.879 115.8 489.119 117.12 488.559 118.64C488.079 120.08 487.719 121.56 487.479 123.08H511.119ZM559.357 161C555.277 153 551.117 143.64 546.877 132.92C542.717 122.2 538.757 110.52 534.997 97.88H553.957C554.757 101 555.677 104.4 556.717 108.08C557.837 111.68 558.957 115.36 560.077 119.12C561.277 122.8 562.437 126.4 563.557 129.92C564.757 133.44 565.917 136.64 567.037 139.52C568.077 136.64 569.197 133.44 570.397 129.92C571.597 126.4 572.757 122.8 573.877 119.12C575.077 115.36 576.197 111.68 577.237 108.08C578.357 104.4 579.317 101 580.117 97.88H598.597C594.837 110.52 590.837 122.2 586.597 132.92C582.437 143.64 578.317 153 574.237 161H559.357Z" fill="url(#paint1_linear_7_2)"/>
<path d="M28.28 120.68H27.28V123.251L29.0172 121.356L28.28 120.68ZM33.68 114.68L32.9452 114.002L32.938 114.009L32.931 114.017L33.68 114.68ZM39.2 108.56L39.9507 109.221L39.9571 109.213L39.9634 109.206L39.2 108.56ZM44.12 102.68L43.3654 102.024L43.3571 102.033L43.349 102.043L44.12 102.68ZM48.2 97.88V96.88H47.7281L47.4281 97.2443L48.2 97.88ZM69.44 97.88L70.1949 98.5359L71.6336 96.88H69.44V97.88ZM56.96 111.92L56.2207 111.247L56.2201 111.247L56.96 111.92ZM43.76 125.6L43.0589 124.887L42.301 125.632L43.091 126.343L43.76 125.6ZM51.2 133.4L50.435 134.044L50.4436 134.054L51.2 133.4ZM58.64 142.64L59.44 142.04L59.44 142.04L58.64 142.64ZM65.24 152.24L64.392 152.77L64.392 152.77L65.24 152.24ZM70.28 161V162H71.92L71.169 160.542L70.28 161ZM49.76 161L48.9083 161.524L49.2012 162H49.76V161ZM45.32 154.16L44.472 154.69L44.4818 154.706L44.4921 154.721L45.32 154.16ZM40.16 146.6L39.348 147.184L39.3524 147.19L39.3569 147.196L40.16 146.6ZM34.28 139.28L33.5226 139.933L33.5289 139.94L33.5354 139.948L34.28 139.28ZM28.28 133.4L28.9047 132.619L27.28 131.319V133.4H28.28ZM28.28 161V162H29.28V161H28.28ZM10.4 161H9.4V162H10.4V161ZM10.4 70.76L10.241 69.7727L9.4 69.9082V70.76H10.4ZM28.28 67.88H29.28V66.706L28.121 66.8927L28.28 67.88ZM29.0172 121.356C30.7814 119.431 32.5853 117.427 34.429 115.343L32.931 114.017C31.0947 116.093 29.2986 118.089 27.5428 120.004L29.0172 121.356ZM34.4148 115.358C36.3398 113.273 38.1852 111.227 39.9507 109.221L38.4493 107.899C36.6948 109.893 34.8602 111.927 32.9452 114.002L34.4148 115.358ZM39.9634 109.206C41.7256 107.123 43.3681 105.16 44.891 103.317L43.349 102.043C41.8319 103.88 40.1944 105.837 38.4366 107.914L39.9634 109.206ZM44.8746 103.336C46.4784 101.492 47.8446 99.8847 48.9719 98.5157L47.4281 97.2443C46.3154 98.5953 44.9616 100.188 43.3654 102.024L44.8746 103.336ZM48.2 98.88H69.44V96.88H48.2V98.88ZM68.6851 97.2241C64.4499 102.099 60.2951 106.773 56.2207 111.247L57.6993 112.593C61.7849 108.107 65.9501 103.421 70.1949 98.5359L68.6851 97.2241ZM56.2201 111.247C52.2341 115.632 47.8473 120.178 43.0589 124.887L44.4611 126.313C49.2727 121.582 53.6859 117.008 57.6999 112.593L56.2201 111.247ZM43.091 126.343C45.4501 128.466 47.8983 131.032 50.4351 134.044L51.9649 132.756C49.3817 129.688 46.8699 127.054 44.429 124.857L43.091 126.343ZM50.4436 134.054C52.9881 136.996 55.4536 140.058 57.84 143.24L59.44 142.04C57.0264 138.822 54.5319 135.724 51.9564 132.746L50.4436 134.054ZM57.84 143.24C60.224 146.419 62.4079 149.595 64.392 152.77L66.088 151.71C64.0721 148.485 61.856 145.261 59.44 142.04L57.84 143.24ZM64.392 152.77C66.3811 155.952 68.0465 158.848 69.391 161.458L71.169 160.542C69.7935 157.872 68.0989 154.928 66.088 151.71L64.392 152.77ZM70.28 160H49.76V162H70.28V160ZM50.6117 160.476C49.3225 158.381 47.8344 156.089 46.1479 153.599L44.4921 154.721C46.1657 157.191 47.6375 159.459 48.9083 161.524L50.6117 160.476ZM46.168 153.63C44.5536 151.047 42.8186 148.505 40.9631 146.004L39.3569 147.196C41.1814 149.655 42.8864 152.153 44.472 154.69L46.168 153.63ZM40.972 146.016C39.1113 143.428 37.1288 140.96 35.0246 138.612L33.5354 139.948C35.5912 142.24 37.5287 144.652 39.348 147.184L40.972 146.016ZM35.0374 138.627C33.0047 136.269 30.961 134.264 28.9047 132.619L27.6553 134.181C29.599 135.736 31.5553 137.651 33.5226 139.933L35.0374 138.627ZM27.28 133.4V161H29.28V133.4H27.28ZM28.28 160H10.4V162H28.28V160ZM11.4 161V70.76H9.4V161H11.4ZM10.559 71.7473L28.439 68.8673L28.121 66.8927L10.241 69.7727L10.559 71.7473ZM27.28 67.88V120.68H29.28V67.88H27.28ZM107.88 148.4L107.93 149.399L107.93 149.399L107.88 148.4ZM111.72 148.04L111.885 149.026L112.72 148.887V148.04H111.72ZM111.72 134.48H112.72V133.678L111.937 133.504L111.72 134.48ZM99.7203 134.12L99.8307 135.114L99.8536 135.111L99.8763 135.108L99.7203 134.12ZM95.8803 135.2L96.3275 136.094L96.3275 136.094L95.8803 135.2ZM95.0403 146.96L94.5204 147.814L94.5419 147.827L94.564 147.839L95.0403 146.96ZM123 103.16L122.268 103.84L122.274 103.847L122.28 103.854L123 103.16ZM127.56 111.32L128.525 111.055L128.525 111.055L127.56 111.32ZM128.88 159.2L129.094 160.177L129.88 160.005V159.2H128.88ZM118.2 161.12L118.044 160.132L118.036 160.134L118.028 160.135L118.2 161.12ZM90.4803 161.24L90.2659 162.217L90.2708 162.218L90.4803 161.24ZM81.9603 157.76L81.3869 158.579L81.3962 158.586L81.4056 158.592L81.9603 157.76ZM76.4403 151.28L77.3401 150.844L76.4403 151.28ZM76.6803 132.2L75.8205 131.689L75.8145 131.7L75.8087 131.71L76.6803 132.2ZM82.6803 126.08L83.2029 126.933L83.2029 126.933L82.6803 126.08ZM91.2003 122.84L91.3964 123.821L91.4082 123.818L91.4198 123.816L91.2003 122.84ZM107.28 122.12L107.145 123.111L107.169 123.114L107.194 123.116L107.28 122.12ZM111.72 122.84L111.446 123.802L112.72 124.166V122.84H111.72ZM90.3603 111.8L90.4942 112.791L90.5073 112.789L90.5204 112.787L90.3603 111.8ZM82.6803 113.6L81.6926 113.756L81.8834 114.962L83.0276 114.538L82.6803 113.6ZM80.4003 99.2L80.1062 98.2442L79.2769 98.4994L79.4126 99.3564L80.4003 99.2ZM84.2403 98.24L84.4463 99.2186L84.4647 99.2147L84.4828 99.2101L84.2403 98.24ZM89.4003 97.28L89.5297 98.2716L89.5507 98.2689L89.5717 98.2652L89.4003 97.28ZM95.1603 96.56L95.2401 97.5568L95.2575 97.5554L95.2749 97.5534L95.1603 96.56ZM102.84 149.52C104.615 149.52 106.312 149.48 107.93 149.399L107.83 147.401C106.249 147.48 104.585 147.52 102.84 147.52V149.52ZM107.93 149.399C109.548 149.318 110.871 149.195 111.885 149.026L111.556 147.054C110.65 147.205 109.413 147.322 107.83 147.401L107.93 149.399ZM112.72 148.04V134.48H110.72V148.04H112.72ZM111.937 133.504C111.163 133.332 110.039 133.167 108.591 133.006L108.37 134.994C109.801 135.153 110.838 135.308 111.503 135.456L111.937 133.504ZM108.591 133.006C107.121 132.843 105.764 132.76 104.52 132.76V134.76C105.677 134.76 106.959 134.837 108.37 134.994L108.591 133.006ZM104.52 132.76C102.793 132.76 101.14 132.883 99.5644 133.132L99.8763 135.108C101.34 134.877 102.888 134.76 104.52 134.76V132.76ZM99.6099 133.126C98.0707 133.297 96.6738 133.685 95.4331 134.306L96.3275 136.094C97.3269 135.595 98.4899 135.263 99.8307 135.114L99.6099 133.126ZM95.4331 134.306C94.1711 134.937 93.1529 135.808 92.4083 136.925L94.0724 138.035C94.6077 137.232 95.3495 136.583 96.3275 136.094L95.4331 134.306ZM92.4083 136.925C91.6344 138.086 91.2803 139.492 91.2803 141.08H93.2803C93.2803 139.788 93.5663 138.794 94.0724 138.035L92.4083 136.925ZM91.2803 141.08C91.2803 144.11 92.293 146.458 94.5204 147.814L95.5603 146.106C94.1076 145.222 93.2803 143.65 93.2803 141.08H91.2803ZM94.564 147.839C96.6856 148.988 99.4709 149.52 102.84 149.52V147.52C99.6498 147.52 97.2351 147.012 95.5166 146.081L94.564 147.839ZM101.4 97.2C106.613 97.2 110.895 97.7934 114.278 98.9465L114.923 97.0535C111.266 95.8066 106.748 95.2 101.4 95.2V97.2ZM114.278 98.9465C117.675 100.105 120.322 101.745 122.268 103.84L123.733 102.48C121.519 100.095 118.566 98.2954 114.923 97.0535L114.278 98.9465ZM122.28 103.854C124.317 105.966 125.757 108.535 126.596 111.585L128.525 111.055C127.603 107.705 126.004 104.834 123.72 102.466L122.28 103.854ZM126.596 111.585C127.449 114.685 127.88 118.154 127.88 122H129.88C129.88 118.006 129.432 114.355 128.525 111.055L126.596 111.585ZM127.88 122V159.2H129.88V122H127.88ZM128.667 158.223C126.135 158.777 122.597 159.413 118.044 160.132L118.356 162.108C122.923 161.387 126.506 160.743 129.094 160.177L128.667 158.223ZM118.028 160.135C113.542 160.922 108.083 161.32 101.64 161.32V163.32C108.157 163.32 113.739 162.918 118.373 162.105L118.028 160.135ZM101.64 161.32C97.6181 161.32 93.9696 160.965 90.6898 160.262L90.2708 162.218C93.711 162.955 97.5026 163.32 101.64 163.32V161.32ZM90.6947 160.263C87.5165 159.566 84.7961 158.449 82.515 156.928L81.4056 158.592C83.9246 160.271 86.8841 161.474 90.2659 162.217L90.6947 160.263ZM82.5338 156.941C80.2736 155.359 78.5459 153.331 77.3401 150.844L75.5405 151.716C76.8947 154.509 78.847 156.801 81.3869 158.579L82.5338 156.941ZM77.3401 150.844C76.1432 148.375 75.5203 145.294 75.5203 141.56H73.5203C73.5203 145.506 74.1775 148.905 75.5405 151.716L77.3401 150.844ZM75.5203 141.56C75.5203 138.009 76.2148 135.067 77.5519 132.69L75.8087 131.71C74.2658 134.453 73.5203 137.751 73.5203 141.56H75.5203ZM77.5402 132.711C78.9792 130.287 80.8648 128.366 83.2029 126.933L82.1578 125.227C79.5358 126.834 77.4214 128.993 75.8205 131.689L77.5402 132.711ZM83.2029 126.933C85.571 125.481 88.298 124.44 91.3964 123.821L91.0042 121.859C87.7027 122.52 84.7497 123.639 82.1578 125.227L83.2029 126.933ZM91.4198 123.816C94.5444 123.113 97.7906 122.76 101.16 122.76V120.76C97.6501 120.76 94.2563 121.127 90.9808 121.864L91.4198 123.816ZM101.16 122.76C103.448 122.76 105.441 122.878 107.145 123.111L107.415 121.129C105.6 120.882 103.513 120.76 101.16 120.76V122.76ZM107.194 123.116C109.002 123.274 110.412 123.506 111.446 123.802L111.995 121.878C110.789 121.534 109.238 121.286 107.367 121.124L107.194 123.116ZM112.72 122.84V121.16H110.72V122.84H112.72ZM112.72 121.16C112.72 117.903 111.726 115.192 109.667 113.133L108.253 114.547C109.874 116.168 110.72 118.337 110.72 121.16H112.72ZM109.667 113.133C107.541 111.006 104.001 110.08 99.3603 110.08V112.08C103.84 112.08 106.7 112.994 108.253 114.547L109.667 113.133ZM99.3603 110.08C96.2674 110.08 93.2139 110.324 90.2002 110.813L90.5204 112.787C93.4267 112.316 96.3732 112.08 99.3603 112.08V110.08ZM90.2264 110.809C87.2138 111.216 84.5788 111.83 82.333 112.662L83.0276 114.538C85.1019 113.77 87.5869 113.184 90.4942 112.791L90.2264 110.809ZM83.668 113.444L81.388 99.0436L79.4126 99.3564L81.6926 113.756L83.668 113.444ZM80.6944 100.156C81.6961 99.8476 82.9446 99.5347 84.4463 99.2186L84.0343 97.2614C82.496 97.5853 81.1846 97.9124 80.1062 98.2442L80.6944 100.156ZM84.4828 99.2101C86.0413 98.8205 87.7231 98.5072 89.5297 98.2716L89.271 96.2884C87.3975 96.5328 85.6393 96.8595 83.9978 97.2699L84.4828 99.2101ZM89.5717 98.2652C91.3792 97.9509 93.2685 97.7145 95.2401 97.5568L95.0806 95.5632C93.0521 95.7255 91.1014 95.9691 89.229 96.2948L89.5717 98.2652ZM95.2749 97.5534C97.3171 97.3178 99.3589 97.2 101.4 97.2V95.2C99.2818 95.2 97.1635 95.3222 95.0457 95.5666L95.2749 97.5534ZM145.048 161H144.048V162H145.048V161ZM145.048 70.76L144.889 69.7727L144.048 69.9082V70.76H145.048ZM162.928 67.88H163.928V66.706L162.769 66.8927L162.928 67.88ZM162.928 98.12H161.928V99.5074L163.245 99.0687L162.928 98.12ZM167.488 97.04L167.66 98.0252L167.676 98.0224L167.692 98.019L167.488 97.04ZM185.728 98.6L185.335 99.5191L185.348 99.5247L185.361 99.53L185.728 98.6ZM193.888 104.48L193.1 105.096L193.106 105.103L193.112 105.111L193.888 104.48ZM198.208 113.6L197.233 113.822L197.236 113.832L197.238 113.843L198.208 113.6ZM199.528 161V162H200.528V161H199.528ZM181.648 161H180.648V162H181.648V161ZM179.368 115.28L178.511 115.794L178.517 115.805L178.524 115.815L179.368 115.28ZM166.648 112.16L166.822 113.145L166.844 113.141L166.865 113.136L166.648 112.16ZM162.928 113L162.654 112.038L161.928 112.246V113H162.928ZM162.928 161V162H163.928V161H162.928ZM146.048 161V70.76H144.048V161H146.048ZM145.207 71.7473L163.087 68.8673L162.769 66.8927L144.889 69.7727L145.207 71.7473ZM161.928 67.88V98.12H163.928V67.88H161.928ZM163.245 99.0687C164.381 98.69 165.848 98.3403 167.66 98.0252L167.317 96.0548C165.449 96.3797 163.876 96.75 162.612 97.1713L163.245 99.0687ZM167.692 98.019C169.553 97.6314 171.324 97.44 173.008 97.44V95.44C171.173 95.44 169.264 95.6486 167.284 96.061L167.692 98.019ZM173.008 97.44C178.043 97.44 182.138 98.1493 185.335 99.5191L186.122 97.6809C182.599 96.1707 178.213 95.44 173.008 95.44V97.44ZM185.361 99.53C188.659 100.834 191.225 102.695 193.1 105.096L194.676 103.864C192.552 101.145 189.678 99.0863 186.096 97.67L185.361 99.53ZM193.112 105.111C195.087 107.54 196.464 110.437 197.233 113.822L199.184 113.378C198.353 109.723 196.85 106.54 194.665 103.849L193.112 105.111ZM197.238 113.843C198.095 117.27 198.528 121.107 198.528 125.36H200.528C200.528 120.973 200.082 116.97 199.179 113.357L197.238 113.843ZM198.528 125.36V161H200.528V125.36H198.528ZM199.528 160H181.648V162H199.528V160ZM182.648 161V127.52H180.648V161H182.648ZM182.648 127.52C182.648 121.73 181.895 117.4 180.213 114.745L178.524 115.815C179.882 117.96 180.648 121.79 180.648 127.52H182.648ZM180.226 114.766C178.534 111.945 175.394 110.68 171.208 110.68V112.68C175.023 112.68 177.323 113.815 178.511 115.794L180.226 114.766ZM171.208 110.68C169.542 110.68 167.948 110.847 166.432 111.184L166.865 113.136C168.228 112.833 169.675 112.68 171.208 112.68V110.68ZM166.475 111.175C165.087 111.42 163.812 111.707 162.654 112.038L163.203 113.962C164.285 113.653 165.49 113.38 166.822 113.145L166.475 111.175ZM161.928 113V161H163.928V113H161.928ZM162.928 160H145.048V162H162.928V160ZM269.593 158.84L269.871 159.801L270.593 159.592V158.84H269.593ZM257.833 161.24L257.684 160.251L257.676 160.252L257.668 160.254L257.833 161.24ZM229.273 160.28L228.894 161.206L228.901 161.208L229.273 160.28ZM220.873 154.28L220.087 154.899L220.092 154.905L220.096 154.911L220.873 154.28ZM215.113 97.88V96.88H214.113V97.88H215.113ZM232.993 97.88H233.993V96.88H232.993V97.88ZM235.273 143.36L234.413 143.871L234.413 143.871L235.273 143.36ZM247.873 147.08L247.928 148.078L247.956 148.077L247.983 148.074L247.873 147.08ZM251.713 146.6L251.854 147.59L252.713 147.467V146.6H251.713ZM251.713 97.88V96.88H250.713V97.88H251.713ZM269.593 97.88H270.593V96.88H269.593V97.88ZM269.314 157.879C266.333 158.742 262.461 159.535 257.684 160.251L257.981 162.229C262.804 161.505 266.772 160.698 269.871 159.801L269.314 157.879ZM257.668 160.254C252.927 161.044 247.942 161.44 242.713 161.44V163.44C248.043 163.44 253.138 163.036 257.997 162.226L257.668 160.254ZM242.713 161.44C237.434 161.44 233.09 160.73 229.644 159.352L228.901 161.208C232.655 162.71 237.271 163.44 242.713 163.44V161.44ZM229.651 159.354C226.262 157.968 223.608 156.061 221.649 153.649L220.096 154.911C222.297 157.619 225.243 159.712 228.894 161.206L229.651 159.354ZM221.658 153.661C219.675 151.145 218.253 148.158 217.404 144.683L215.461 145.157C216.372 148.882 217.91 152.135 220.087 154.899L221.658 153.661ZM217.404 144.683C216.546 141.172 216.113 137.293 216.113 133.04H214.113C214.113 137.427 214.559 141.468 215.461 145.157L217.404 144.683ZM216.113 133.04V97.88H214.113V133.04H216.113ZM215.113 98.88H232.993V96.88H215.113V98.88ZM231.993 97.88V130.88H233.993V97.88H231.993ZM231.993 130.88C231.993 136.68 232.749 141.069 234.413 143.871L236.132 142.849C234.756 140.531 233.993 136.6 233.993 130.88H231.993ZM234.413 143.871C236.18 146.848 239.436 148.2 243.793 148.2V146.2C239.829 146.2 237.405 144.992 236.132 142.849L234.413 143.871ZM243.793 148.2C245.093 148.2 246.472 148.159 247.928 148.078L247.817 146.082C246.393 146.161 245.052 146.2 243.793 146.2V148.2ZM247.983 148.074C249.431 147.913 250.721 147.752 251.854 147.59L251.571 145.61C250.464 145.768 249.194 145.927 247.762 146.086L247.983 148.074ZM252.713 146.6V97.88H250.713V146.6H252.713ZM251.713 98.88H269.593V96.88H251.713V98.88ZM268.593 97.88V158.84H270.593V97.88H268.593ZM285.777 82.16L285.618 81.1727L284.777 81.3082V82.16H285.777ZM303.657 79.28H304.657V78.106L303.498 78.2927L303.657 79.28ZM303.657 97.88H302.657V98.88H303.657V97.88ZM325.137 97.88H326.137V96.88H325.137V97.88ZM325.137 112.76V113.76H326.137V112.76H325.137ZM303.657 112.76V111.76H302.657V112.76H303.657ZM305.577 143.96L304.708 144.456L304.715 144.468L304.722 144.479L305.577 143.96ZM319.497 146.84L319.655 147.827L319.67 147.825L319.685 147.822L319.497 146.84ZM325.137 145.28L326.121 145.102L325.906 143.917L324.781 144.346L325.137 145.28ZM327.657 159.2L328.034 160.126L328.785 159.82L328.641 159.022L327.657 159.2ZM320.457 161.48L320.221 160.508L320.221 160.508L320.457 161.48ZM298.617 160.52L298.225 161.44L298.235 161.445L298.245 161.448L298.617 160.52ZM290.937 155L290.156 155.625L290.161 155.631L290.166 155.638L290.937 155ZM286.857 146.36L285.879 146.57L285.881 146.581L285.884 146.592L286.857 146.36ZM285.936 83.1473L303.816 80.2673L303.498 78.2927L285.618 81.1727L285.936 83.1473ZM302.657 79.28V97.88H304.657V79.28H302.657ZM303.657 98.88H325.137V96.88H303.657V98.88ZM324.137 97.88V112.76H326.137V97.88H324.137ZM325.137 111.76H303.657V113.76H325.137V111.76ZM302.657 112.76V134.96H304.657V112.76H302.657ZM302.657 134.96C302.657 138.82 303.311 142.011 304.708 144.456L306.445 143.464C305.282 141.429 304.657 138.62 304.657 134.96H302.657ZM304.722 144.479C306.346 147.154 309.464 148.32 313.617 148.32V146.32C309.769 146.32 307.527 145.246 306.431 143.441L304.722 144.479ZM313.617 148.32C315.592 148.32 317.605 148.155 319.655 147.827L319.339 145.853C317.388 146.165 315.481 146.32 313.617 146.32V148.32ZM319.685 147.822C321.813 147.413 323.75 146.878 325.493 146.214L324.781 144.346C323.163 144.962 321.34 145.467 319.308 145.858L319.685 147.822ZM324.153 145.458L326.673 159.378L328.641 159.022L326.121 145.102L324.153 145.458ZM327.279 158.274C325.172 159.132 322.82 159.878 320.221 160.508L320.692 162.452C323.373 161.802 325.821 161.028 328.034 160.126L327.279 158.274ZM320.221 160.508C317.683 161.124 314.527 161.44 310.737 161.44V163.44C314.626 163.44 317.951 163.116 320.692 162.452L320.221 160.508ZM310.737 161.44C305.935 161.44 302.032 160.809 298.988 159.592L298.245 161.448C301.601 162.791 305.778 163.44 310.737 163.44V161.44ZM299.008 159.6C295.932 158.293 293.51 156.541 291.707 154.362L290.166 155.638C292.203 158.099 294.901 160.027 298.225 161.44L299.008 159.6ZM291.717 154.375C289.9 152.104 288.599 149.363 287.829 146.128L285.884 146.592C286.714 150.077 288.133 153.096 290.156 155.625L291.717 154.375ZM287.834 146.15C287.132 142.871 286.777 139.222 286.777 135.2H284.777C284.777 139.338 285.142 143.129 285.879 146.57L287.834 146.15ZM286.777 135.2V82.16H284.777V135.2H286.777ZM331.297 168.32V167.32H330.297V168.32H331.297ZM391.297 168.32H392.297V167.32H391.297V168.32ZM391.297 183.2V184.2H392.297V183.2H391.297ZM331.297 183.2H330.297V184.2H331.297V183.2ZM331.297 169.32H391.297V167.32H331.297V169.32ZM390.297 168.32V183.2H392.297V168.32H390.297ZM391.297 182.2H331.297V184.2H391.297V182.2ZM332.297 183.2V168.32H330.297V183.2H332.297ZM418.657 142.28L419.461 141.686L419.461 141.686L418.657 142.28ZM434.137 147.2L434.196 148.198L434.225 148.197L434.254 148.193L434.137 147.2ZM437.497 146.72L437.676 147.704L438.497 147.555V146.72H437.497ZM437.497 114.2H438.497V113.654L438.038 113.359L437.497 114.2ZM433.057 112.4L432.794 113.365L432.804 113.368L433.057 112.4ZM455.377 158.96L455.664 159.918L456.377 159.704V158.96H455.377ZM449.857 160.4L450.046 161.382L450.064 161.379L450.082 161.374L449.857 160.4ZM443.257 161.48L443.12 160.489L443.115 160.49L443.257 161.48ZM436.297 162.2L436.23 161.202L436.212 161.203L436.194 161.205L436.297 162.2ZM405.337 153.8L404.62 154.497L404.63 154.507L405.337 153.8ZM398.857 143.48L397.914 143.813L397.918 143.824L397.922 143.835L398.857 143.48ZM398.617 116L399.571 116.299L399.573 116.294L398.617 116ZM404.137 105.44L403.369 104.8L403.369 104.8L404.137 105.44ZM412.897 98.84L412.5 97.9219L412.493 97.9253L412.897 98.84ZM431.497 97.28L431.254 98.2502L431.264 98.2524L431.497 97.28ZM437.497 99.32L437.094 100.235L438.497 100.853V99.32H437.497ZM437.497 70.76L437.338 69.7727L436.497 69.9082V70.76H437.497ZM455.377 67.88H456.377V66.706L455.218 66.8927L455.377 67.88ZM413.937 128.96C413.937 134.625 415.21 139.294 417.852 142.874L419.461 141.686C417.144 138.546 415.937 134.335 415.937 128.96H413.937ZM417.852 142.874C420.554 146.535 424.56 148.32 429.697 148.32V146.32C425.074 146.32 421.72 144.745 419.461 141.686L417.852 142.874ZM429.697 148.32C431.313 148.32 432.813 148.28 434.196 148.198L434.078 146.202C432.741 146.28 431.281 146.32 429.697 146.32V148.32ZM434.254 148.193C435.625 148.032 436.767 147.869 437.676 147.704L437.318 145.736C436.466 145.891 435.369 146.048 434.02 146.207L434.254 148.193ZM438.497 146.72V114.2H436.497V146.72H438.497ZM438.038 113.359C436.8 112.563 435.212 111.929 433.309 111.432L432.804 113.368C434.582 113.831 435.954 114.397 436.956 115.041L438.038 113.359ZM433.32 111.435C431.473 110.932 429.585 110.68 427.657 110.68V112.68C429.409 112.68 431.12 112.908 432.794 113.365L433.32 111.435ZM427.657 110.68C423.166 110.68 419.656 112.222 417.312 115.407C415.009 118.535 413.937 123.107 413.937 128.96H415.937C415.937 123.293 416.985 119.225 418.922 116.593C420.817 114.018 423.668 112.68 427.657 112.68V110.68ZM455.09 158.002C453.515 158.475 451.696 158.949 449.632 159.426L450.082 161.374C452.177 160.891 454.039 160.405 455.664 159.918L455.09 158.002ZM449.668 159.418C447.607 159.814 445.425 160.172 443.12 160.489L443.394 162.471C445.729 162.148 447.947 161.786 450.046 161.382L449.668 159.418ZM443.115 160.49C440.902 160.806 438.607 161.044 436.23 161.202L436.363 163.198C438.787 163.036 441.132 162.794 443.398 162.47L443.115 160.49ZM436.194 161.205C433.905 161.442 431.7 161.56 429.577 161.56V163.56C431.774 163.56 434.048 163.438 436.4 163.195L436.194 161.205ZM429.577 161.56C424.473 161.56 419.955 160.814 416.006 159.343L415.308 161.217C419.519 162.786 424.28 163.56 429.577 163.56V161.56ZM416.006 159.343C412.047 157.868 408.733 155.782 406.044 153.093L404.63 154.507C407.541 157.418 411.107 159.652 415.308 161.217L416.006 159.343ZM406.054 153.103C403.355 150.327 401.266 147.006 399.792 143.125L397.922 143.835C399.487 147.954 401.719 151.513 404.62 154.497L406.054 153.103ZM399.8 143.147C398.403 139.19 397.697 134.745 397.697 129.8H395.697C395.697 134.935 396.431 139.61 397.914 143.813L399.8 143.147ZM397.697 129.8C397.697 124.762 398.327 120.266 399.571 116.299L397.663 115.701C396.347 119.894 395.697 124.598 395.697 129.8H397.697ZM399.573 116.294C400.82 112.241 402.602 108.843 404.905 106.08L403.369 104.8C400.871 107.797 398.974 111.439 397.661 115.706L399.573 116.294ZM404.905 106.08C407.206 103.319 410.001 101.213 413.301 99.7547L412.493 97.9253C408.912 99.5074 405.868 101.801 403.369 104.8L404.905 106.08ZM413.293 99.7581C416.669 98.3004 420.531 97.56 424.897 97.56V95.56C420.303 95.56 416.165 96.3396 412.5 97.9219L413.293 99.7581ZM424.897 97.56C427.315 97.56 429.431 97.7942 431.254 98.2501L431.739 96.3099C429.723 95.8058 427.439 95.56 424.897 95.56V97.56ZM431.264 98.2524C433.202 98.7176 435.145 99.3779 437.094 100.235L437.9 98.4047C435.848 97.5021 433.792 96.8024 431.73 96.3076L431.264 98.2524ZM438.497 99.32V70.76H436.497V99.32H438.497ZM437.656 71.7473L455.536 68.8673L455.218 66.8927L437.338 69.7727L437.656 71.7473ZM454.377 67.88V158.96H456.377V67.88H454.377ZM471.639 115.28L470.715 114.897L470.712 114.906L471.639 115.28ZM478.479 104.72L477.772 104.013L477.772 104.013L478.479 104.72ZM488.079 98.36L487.714 97.4287L487.707 97.4315L488.079 98.36ZM520.599 104.48L519.871 105.166L519.876 105.171L520.599 104.48ZM528.279 132.08L529.277 132.147L529.277 132.142L528.279 132.08ZM528.039 135.32V136.32H528.959L529.035 135.403L528.039 135.32ZM487.479 135.32V134.32H486.364L486.485 135.428L487.479 135.32ZM492.639 144.08L492.06 144.895L492.06 144.895L492.639 144.08ZM514.479 146.48L514.655 147.464L514.665 147.463L514.675 147.461L514.479 146.48ZM522.279 144.2L523.265 144.037L523.055 142.766L521.876 143.285L522.279 144.2ZM524.679 158.72L525.126 159.614L525.786 159.285L525.665 158.557L524.679 158.72ZM520.839 160.16L520.551 159.202L520.551 159.202L520.839 160.16ZM515.439 161.36L515.281 160.373L515.258 160.376L515.235 160.381L515.439 161.36ZM509.199 162.32L509.305 163.314L509.305 163.314L509.199 162.32ZM487.599 160.16L487.224 161.087L487.23 161.09L487.599 160.16ZM477.159 153.32L476.422 153.997L476.432 154.007L476.442 154.017L477.159 153.32ZM471.039 142.88L470.086 143.185L470.089 143.193L470.092 143.202L471.039 142.88ZM511.119 123.08V124.08H512.173L512.117 123.027L511.119 123.08ZM510.279 118.64L509.315 118.908L509.322 118.932L509.33 118.956L510.279 118.64ZM508.239 114.8L507.452 115.418L507.466 115.435L507.479 115.451L508.239 114.8ZM504.759 112.04L504.291 112.924L504.301 112.929L504.312 112.934L504.759 112.04ZM494.439 112.04L494.845 112.954L494.866 112.945L494.886 112.934L494.439 112.04ZM488.559 118.64L487.62 118.294L487.615 118.309L487.61 118.324L488.559 118.64ZM487.479 123.08L486.491 122.924L486.308 124.08H487.479V123.08ZM470.119 129.92C470.119 124.418 470.944 119.67 472.566 115.654L470.712 114.906C468.973 119.21 468.119 124.222 468.119 129.92H470.119ZM472.562 115.663C474.28 111.525 476.492 108.121 479.186 105.427L477.772 104.013C474.865 106.919 472.517 110.555 470.715 114.897L472.562 115.663ZM479.186 105.427C481.892 102.721 484.979 100.677 488.45 99.2885L487.707 97.4315C483.979 98.9229 480.665 101.119 477.772 104.013L479.186 105.427ZM488.443 99.2912C492.01 97.8953 495.647 97.2 499.359 97.2V95.2C495.39 95.2 491.507 95.9447 487.714 97.4288L488.443 99.2912ZM499.359 97.2C508.097 97.2 514.894 99.8827 519.871 105.166L521.327 103.794C515.903 98.0373 508.54 95.2 499.359 95.2V97.2ZM519.876 105.171C524.836 110.36 527.399 118.11 527.399 128.6H529.399C529.399 117.81 526.762 109.48 521.322 103.789L519.876 105.171ZM527.399 128.6C527.399 129.615 527.36 130.754 527.281 132.018L529.277 132.142C529.358 130.846 529.399 129.665 529.399 128.6H527.399ZM527.281 132.013C527.201 133.209 527.122 134.284 527.042 135.237L529.035 135.403C529.116 134.436 529.196 133.351 529.277 132.147L527.281 132.013ZM528.039 134.32H487.479V136.32H528.039V134.32ZM486.485 135.428C486.916 139.395 488.789 142.571 492.06 144.895L493.218 143.265C490.409 141.269 488.842 138.605 488.473 135.212L486.485 135.428ZM492.06 144.895C495.321 147.213 499.627 148.32 504.879 148.32V146.32C499.891 146.32 496.036 145.267 493.218 143.265L492.06 144.895ZM504.879 148.32C508.216 148.32 511.475 148.035 514.655 147.464L514.302 145.496C511.242 146.045 508.102 146.32 504.879 146.32V148.32ZM514.675 147.461C517.915 146.813 520.591 146.035 522.681 145.115L521.876 143.285C519.966 144.125 517.443 144.867 514.283 145.499L514.675 147.461ZM521.292 144.363L523.692 158.883L525.665 158.557L523.265 144.037L521.292 144.363ZM524.232 157.826C523.343 158.27 522.123 158.731 520.551 159.202L521.126 161.118C522.754 160.629 524.095 160.13 525.126 159.614L524.232 157.826ZM520.551 159.202C519.002 159.667 517.246 160.058 515.281 160.373L515.597 162.347C517.632 162.022 519.476 161.613 521.126 161.118L520.551 159.202ZM515.235 160.381C513.351 160.773 511.304 161.089 509.092 161.326L509.305 163.314C511.573 163.071 513.686 162.747 515.643 162.339L515.235 160.381ZM509.092 161.326C506.887 161.562 504.683 161.68 502.479 161.68V163.68C504.755 163.68 507.03 163.558 509.305 163.314L509.092 161.326ZM502.479 161.68C496.895 161.68 492.065 160.854 487.967 159.23L487.23 161.09C491.613 162.826 496.702 163.68 502.479 163.68V161.68ZM487.973 159.233C483.927 157.599 480.568 155.392 477.876 152.623L476.442 154.017C479.349 157.008 482.95 159.361 487.224 161.087L487.973 159.233ZM477.895 152.643C475.274 149.791 473.303 146.433 471.986 142.558L470.092 143.202C471.494 147.327 473.604 150.929 476.422 153.997L477.895 152.643ZM471.991 142.575C470.746 138.683 470.119 134.467 470.119 129.92H468.119C468.119 134.653 468.772 139.077 470.086 143.185L471.991 142.575ZM512.117 123.027C512.033 121.418 511.736 119.849 511.227 118.324L509.33 118.956C509.782 120.311 510.045 121.702 510.12 123.133L512.117 123.027ZM511.242 118.372C510.804 116.793 510.055 115.382 508.998 114.149L507.479 115.451C508.343 116.458 508.954 117.607 509.315 118.908L511.242 118.372ZM509.025 114.182C508.043 112.932 506.761 111.923 505.206 111.146L504.312 112.934C505.637 113.597 506.675 114.428 507.452 115.418L509.025 114.182ZM505.227 111.156C503.681 110.338 501.787 109.96 499.599 109.96V111.96C501.57 111.96 503.117 112.302 504.291 112.924L505.227 111.156ZM499.599 109.96C497.48 109.96 495.6 110.341 493.992 111.146L494.886 112.934C496.158 112.299 497.717 111.96 499.599 111.96V109.96ZM494.033 111.126C492.466 111.822 491.143 112.789 490.079 114.029L491.598 115.331C492.455 114.331 493.531 113.538 494.845 112.954L494.033 111.126ZM490.079 114.029C489.035 115.248 488.217 116.674 487.62 118.294L489.497 118.986C490.02 117.566 490.723 116.352 491.598 115.331L490.079 114.029ZM487.61 118.324C487.112 119.817 486.739 121.35 486.491 122.924L488.467 123.236C488.698 121.77 489.045 120.343 489.507 118.956L487.61 118.324ZM487.479 124.08H511.119V122.08H487.479V124.08ZM559.357 161L558.466 161.454L558.744 162H559.357V161ZM546.877 132.92L545.945 133.282L545.947 133.288L546.877 132.92ZM534.997 97.88V96.88H533.656L534.038 98.1651L534.997 97.88ZM553.957 97.88L554.926 97.6316L554.733 96.88H553.957V97.88ZM556.717 108.08L555.755 108.352L555.758 108.365L555.762 108.377L556.717 108.08ZM560.077 119.12L559.118 119.405L559.122 119.418L559.126 119.43L560.077 119.12ZM563.557 129.92L562.604 130.223L562.607 130.233L562.61 130.243L563.557 129.92ZM567.037 139.52L566.105 139.882L567.072 142.368L567.977 139.86L567.037 139.52ZM570.397 129.92L569.45 129.597L569.45 129.597L570.397 129.92ZM573.877 119.12L572.924 118.816L572.92 118.829L573.877 119.12ZM577.237 108.08L576.28 107.789L576.278 107.796L576.276 107.802L577.237 108.08ZM580.117 97.88V96.88H579.341L579.148 97.6316L580.117 97.88ZM598.597 97.88L599.555 98.1651L599.938 96.88H598.597V97.88ZM586.597 132.92L585.667 132.552L585.665 132.558L586.597 132.92ZM574.237 161V162H574.849L575.128 161.454L574.237 161ZM560.248 160.546C556.185 152.58 552.038 143.251 547.807 132.552L545.947 133.288C550.196 144.029 554.368 153.42 558.466 161.454L560.248 160.546ZM547.809 132.558C543.66 121.867 539.709 110.213 535.955 97.5949L534.038 98.1651C537.805 110.827 541.774 122.533 545.945 133.282L547.809 132.558ZM534.997 98.88H553.957V96.88H534.997V98.88ZM552.988 98.1284C553.791 101.258 554.713 104.666 555.755 108.352L557.679 107.808C556.641 104.134 555.723 100.742 554.926 97.6316L552.988 98.1284ZM555.762 108.377C556.881 111.973 558 115.649 559.118 119.405L561.035 118.835C559.914 115.071 558.793 111.387 557.672 107.783L555.762 108.377ZM559.126 119.43C560.325 123.108 561.485 126.706 562.604 130.223L564.51 129.617C563.389 126.094 562.228 122.492 561.028 118.81L559.126 119.43ZM562.61 130.243C563.814 133.773 564.979 136.987 566.105 139.882L567.969 139.158C566.855 136.293 565.7 133.107 564.503 129.597L562.61 130.243ZM567.977 139.86C569.02 136.973 570.142 133.767 571.343 130.243L569.45 129.597C568.252 133.113 567.134 136.307 566.096 139.18L567.977 139.86ZM571.343 130.243C572.547 126.712 573.71 123.101 574.834 119.411L572.92 118.829C571.803 122.499 570.647 126.088 569.45 129.597L571.343 130.243ZM574.83 119.424C576.032 115.656 577.155 111.967 578.198 108.358L576.276 107.802C575.239 111.393 574.122 115.064 572.924 118.816L574.83 119.424ZM578.194 108.371C579.317 104.68 580.281 101.265 581.086 98.1284L579.148 97.6316C578.353 100.735 577.397 104.12 576.28 107.789L578.194 108.371ZM580.117 98.88H598.597V96.88H580.117V98.88ZM597.638 97.5949C593.886 110.211 589.895 121.863 585.667 132.552L587.527 133.288C591.779 122.537 595.788 110.829 599.555 98.1651L597.638 97.5949ZM585.665 132.558C581.514 143.255 577.407 152.583 573.346 160.546L575.128 161.454C579.227 153.417 583.36 144.025 587.529 133.282L585.665 132.558ZM574.237 160H559.357V162H574.237V160Z" fill="white"/>
<defs>
<linearGradient id="paint0_linear_7_2" x1="327.19" y1="109" x2="33.877" y2="158.789" gradientUnits="userSpaceOnUse">
<stop stop-color="#2EECFF"/>
<stop offset="0.333333" stop-color="#27A0FF"/>
<stop offset="0.666667" stop-color="#236AFB"/>
<stop offset="1" stop-color="#2F15FF"/>
</linearGradient>
<linearGradient id="paint1_linear_7_2" x1="580.5" y1="110" x2="391.5" y2="173" gradientUnits="userSpaceOnUse">
<stop stop-color="#2EECFF"/>
<stop offset="0.526042" stop-color="white"/>
<stop offset="1"/>
</linearGradient>
</defs>
</svg>
