<svg width="515" height="500" viewBox="0 0 515 500" fill="none" xmlns="http://www.w3.org/2000/svg">
<g clip-path="url(#clip0_7_9)">
<rect y="0.55368" width="515" height="499.446" rx="80" fill="url(#paint0_linear_7_9)"/>
<path d="M222.203 280.771C230.856 271.331 239.705 261.499 248.751 251.273C258.191 241.046 267.237 231.017 275.89 221.184C284.543 210.958 292.606 201.322 300.079 192.276C307.945 183.23 314.631 175.363 320.138 168.677H424.562C403.716 192.669 383.264 215.678 363.205 237.703C343.54 259.335 321.907 281.754 298.309 304.96C310.108 315.579 322.301 328.362 334.887 343.307C347.473 357.86 359.665 373.002 371.465 388.735C383.264 404.467 394.08 420.2 403.913 435.932C413.746 451.665 422.005 466.021 428.692 479H327.807C321.514 468.774 314.238 457.565 305.978 445.372C298.112 432.786 289.656 420.397 280.61 408.204C271.564 395.618 261.927 383.622 251.701 372.216C241.869 360.81 232.036 351.174 222.203 343.307V479H134.298V35.3444L222.203 21.1851V280.771Z" fill="url(#paint1_linear_7_9)"/>
<path d="M222.203 280.771H219.203V288.483L224.414 282.798L222.203 280.771ZM248.751 251.273L246.547 249.238L246.525 249.261L246.504 249.285L248.751 251.273ZM275.89 221.184L278.142 223.166L278.161 223.144L278.18 223.122L275.89 221.184ZM300.079 192.276L297.815 190.307L297.79 190.336L297.766 190.365L300.079 192.276ZM320.138 168.677V165.677H318.722L317.822 166.77L320.138 168.677ZM424.562 168.677L426.826 170.645L431.143 165.677H424.562V168.677ZM363.205 237.703L360.987 235.683L360.985 235.685L363.205 237.703ZM298.309 304.96L296.205 302.82L293.932 305.056L296.302 307.189L298.309 304.96ZM334.887 343.307L332.592 345.24L332.605 345.255L332.618 345.27L334.887 343.307ZM371.465 388.735L373.865 386.935L373.865 386.935L371.465 388.735ZM403.913 435.932L401.369 437.522L401.369 437.522L403.913 435.932ZM428.692 479V482H433.612L431.358 477.626L428.692 479ZM327.807 479L325.252 480.572L326.131 482H327.807V479ZM305.978 445.372L303.434 446.962L303.464 447.009L303.495 447.054L305.978 445.372ZM280.61 408.204L278.174 409.955L278.187 409.973L278.2 409.991L280.61 408.204ZM251.701 372.216L249.429 374.175L249.448 374.197L249.468 374.218L251.701 372.216ZM222.203 343.307L224.077 340.965L219.203 337.066V343.307H222.203ZM222.203 479V482H225.203V479H222.203ZM134.298 479H131.298V482H134.298V479ZM134.298 35.3444L133.821 32.3825L131.298 32.7889V35.3444H134.298ZM222.203 21.1851H225.203V17.6632L221.726 18.2233L222.203 21.1851ZM224.414 282.798C233.08 273.345 241.941 263.499 250.998 253.26L246.504 249.285C237.469 259.498 228.632 269.318 219.991 278.744L224.414 282.798ZM250.956 253.307C260.41 243.065 269.473 233.018 278.142 223.166L273.638 219.202C265.002 229.016 255.971 239.028 246.547 249.238L250.956 253.307ZM278.18 223.122C286.84 212.888 294.91 203.243 302.392 194.186L297.766 190.365C290.301 199.401 282.246 209.028 273.6 219.246L278.18 223.122ZM302.342 194.244C310.22 185.185 316.925 177.297 322.453 170.584L317.822 166.77C312.337 173.429 305.67 181.274 297.815 190.307L302.342 194.244ZM320.138 171.677H424.562V165.677H320.138V171.677ZM422.297 166.709C401.466 190.685 381.029 213.676 360.987 235.683L365.423 239.723C385.499 217.679 405.967 194.653 426.826 170.645L422.297 166.709ZM360.985 235.685C341.362 257.271 319.769 279.649 296.205 302.82L300.412 307.099C324.046 283.859 345.717 261.4 365.425 239.721L360.985 235.685ZM296.302 307.189C307.978 317.698 320.076 330.377 332.592 345.24L337.181 341.375C324.526 326.347 312.238 313.46 300.316 302.73L296.302 307.189ZM332.618 345.27C345.157 359.769 357.306 374.857 369.065 390.535L373.865 386.935C362.025 371.148 349.788 355.951 337.156 341.345L332.618 345.27ZM369.065 390.535C380.816 406.204 391.584 421.866 401.369 437.522L406.457 434.342C396.577 418.534 385.712 402.731 373.865 386.935L369.065 390.535ZM401.369 437.522C411.169 453.202 419.385 467.485 426.025 480.374L431.358 477.626C424.626 464.557 416.323 450.127 406.457 434.342L401.369 437.522ZM428.692 476H327.807V482H428.692V476ZM330.362 477.428C324.042 467.157 316.741 455.91 308.462 443.689L303.495 447.054C311.735 459.219 318.987 470.391 325.252 480.572L330.362 477.428ZM308.522 443.782C300.613 431.127 292.112 418.672 283.019 406.416L278.2 409.991C287.2 422.122 295.611 434.445 303.434 446.962L308.522 443.782ZM283.046 406.453C273.937 393.781 264.234 381.7 253.935 370.213L249.468 374.218C259.621 385.543 269.19 397.455 278.174 409.955L283.046 406.453ZM253.974 370.257C244.043 358.737 234.079 348.966 224.077 340.965L220.329 345.65C229.993 353.381 239.694 362.882 249.429 374.175L253.974 370.257ZM219.203 343.307V479H225.203V343.307H219.203ZM222.203 476H134.298V482H222.203V476ZM137.298 479V35.3444H131.298V479H137.298ZM134.775 38.3062L222.68 24.147L221.726 18.2233L133.821 32.3825L134.775 38.3062ZM219.203 21.1851V280.771H225.203V21.1851H219.203Z" fill="white"/>
</g>
<rect x="0.864094" y="1.41777" width="513.272" height="497.718" rx="79.1359" stroke="white" stroke-width="1.72819"/>
<defs>
<linearGradient id="paint0_linear_7_9" x1="257.5" y1="0.55368" x2="257.5" y2="500" gradientUnits="userSpaceOnUse">
<stop stop-color="#2F15FF"/>
<stop offset="1" stop-color="#236AFB"/>
</linearGradient>
<linearGradient id="paint1_linear_7_9" x1="278.978" y1="144.889" x2="106.522" y2="149.525" gradientUnits="userSpaceOnUse">
<stop stop-color="#2EECFF"/>
<stop offset="0.333333" stop-color="#27A0FF"/>
<stop offset="0.666667" stop-color="#236AFB"/>
<stop offset="1" stop-color="#2F15FF"/>
</linearGradient>
<clipPath id="clip0_7_9">
<rect y="0.55368" width="515" height="499.446" rx="80" fill="white"/>
</clipPath>
</defs>
</svg>
